M48
; DRILL file {KiCad 7.0.1-0} date 2023 April 22, Saturday 10:39:34
; FORMAT={-:-/ absolute / metric / decimal}
; #@! TF.CreationDate,2023-04-22T10:39:34-04:00
; #@! TF.GenerationSoftware,Kicad,Pcbnew,7.0.1-0
; #@! TF.FileFunction,MixedPlating,1,2
FMAT,2
METRIC
; #@! TA.AperFunction,Plated,PTH,ComponentDrill
T1C0.750
; #@! TA.AperFunction,Plated,PTH,ComponentDrill
T2C0.800
; #@! TA.AperFunction,Plated,PTH,ComponentDrill
T3C1.000
; #@! TA.AperFunction,Plated,PTH,ComponentDrill
T4C1.100
; #@! TA.AperFunction,NonPlated,NPTH,ComponentDrill
T5C3.000
; #@! TA.AperFunction,NonPlated,NPTH,ComponentDrill
T6C3.200
%
G90
G05
T1
X151.13Y-67.31
X152.4Y-67.31
X153.67Y-67.31
T2
X126.46Y-81.28
X128.27Y-95.25
X128.46Y-81.28
X134.62Y-81.28
X136.62Y-81.28
X138.43Y-95.25
X143.51Y-86.36
X143.51Y-96.52
X148.59Y-86.36
X148.59Y-88.9
X148.59Y-91.44
X148.59Y-93.98
X148.59Y-96.52
X148.59Y-99.06
X148.59Y-101.6
X148.6Y-72.4
X148.6Y-74.94
X148.6Y-77.48
X148.6Y-80.02
X156.21Y-86.36
X156.21Y-88.9
X156.21Y-91.44
X156.21Y-93.98
X156.21Y-96.52
X156.21Y-99.06
X156.21Y-101.6
X156.22Y-72.4
X156.22Y-74.94
X156.22Y-77.48
X156.22Y-80.02
X162.56Y-67.85
X162.56Y-69.85
X162.56Y-73.66
X162.56Y-75.66
X162.56Y-80.01
X162.56Y-90.17
X162.56Y-93.98
X162.56Y-101.6
X167.64Y-80.01
X167.64Y-90.17
X167.64Y-95.25
X168.91Y-67.31
X172.72Y-80.01
X172.72Y-90.17
X177.8Y-95.25
X179.055Y-86.4
X179.055Y-91.4
X179.07Y-67.31
X179.07Y-76.2
X179.07Y-81.2
X182.88Y-67.31
X184.15Y-78.74
X184.15Y-81.28
X184.15Y-83.82
X184.15Y-86.36
X184.15Y-88.9
X184.15Y-91.44
X184.15Y-93.98
X184.15Y-96.52
X191.77Y-78.74
X191.77Y-81.28
X191.77Y-83.82
X191.77Y-86.36
X191.77Y-88.9
X191.77Y-91.44
X191.77Y-93.98
X191.77Y-96.52
X193.04Y-67.31
X196.835Y-86.44
X196.835Y-91.44
X196.85Y-72.39
X196.85Y-82.55
T3
X118.11Y-74.93
X118.11Y-77.47
X118.11Y-80.01
X118.11Y-82.55
X118.11Y-85.09
X118.11Y-87.63
X118.11Y-90.17
X118.11Y-92.71
X120.65Y-74.93
X120.65Y-77.47
X120.65Y-80.01
X120.65Y-82.55
X120.65Y-85.09
X120.65Y-87.63
X120.65Y-90.17
X120.65Y-92.71
X127.0Y-101.6
X129.54Y-101.6
X132.08Y-101.6
X137.145Y-101.6
X139.685Y-101.6
X142.225Y-101.6
X142.24Y-71.12
X142.24Y-73.66
X168.91Y-101.6
X171.45Y-101.6
X173.99Y-101.6
X180.325Y-101.6
X182.865Y-101.6
X185.405Y-101.6
T4
X126.46Y-74.93
X126.46Y-87.63
X136.62Y-74.93
X136.62Y-87.63
T5
X198.12Y-67.31
T6
X119.38Y-67.31
X119.38Y-101.6
X198.12Y-101.6
T0
M30
