%TF.GenerationSoftware,KiCad,Pcbnew,7.0.1-0*%
%TF.CreationDate,2023-04-22T10:39:49-04:00*%
%TF.ProjectId,Penford VCO,50656e66-6f72-4642-9056-434f2e6b6963,rev?*%
%TF.SameCoordinates,Original*%
%TF.FileFunction,Legend,Top*%
%TF.FilePolarity,Positive*%
%FSLAX46Y46*%
G04 Gerber Fmt 4.6, Leading zero omitted, Abs format (unit mm)*
G04 Created by KiCad (PCBNEW 7.0.1-0) date 2023-04-22 10:39:49*
%MOMM*%
%LPD*%
G01*
G04 APERTURE LIST*
%ADD10C,0.125000*%
%ADD11C,0.150000*%
%ADD12C,0.120000*%
G04 APERTURE END LIST*
D10*
X179095238Y-104377619D02*
X179666666Y-104377619D01*
X179380952Y-105377619D02*
X179380952Y-104377619D01*
X180000000Y-105377619D02*
X180000000Y-104710952D01*
X180000000Y-104901428D02*
X180047619Y-104806190D01*
X180047619Y-104806190D02*
X180095238Y-104758571D01*
X180095238Y-104758571D02*
X180190476Y-104710952D01*
X180190476Y-104710952D02*
X180285714Y-104710952D01*
X180619048Y-105377619D02*
X180619048Y-104710952D01*
X180619048Y-104377619D02*
X180571429Y-104425238D01*
X180571429Y-104425238D02*
X180619048Y-104472857D01*
X180619048Y-104472857D02*
X180666667Y-104425238D01*
X180666667Y-104425238D02*
X180619048Y-104377619D01*
X180619048Y-104377619D02*
X180619048Y-104472857D01*
X182047619Y-104377619D02*
X182238095Y-104377619D01*
X182238095Y-104377619D02*
X182333333Y-104425238D01*
X182333333Y-104425238D02*
X182428571Y-104520476D01*
X182428571Y-104520476D02*
X182476190Y-104710952D01*
X182476190Y-104710952D02*
X182476190Y-105044285D01*
X182476190Y-105044285D02*
X182428571Y-105234761D01*
X182428571Y-105234761D02*
X182333333Y-105330000D01*
X182333333Y-105330000D02*
X182238095Y-105377619D01*
X182238095Y-105377619D02*
X182047619Y-105377619D01*
X182047619Y-105377619D02*
X181952381Y-105330000D01*
X181952381Y-105330000D02*
X181857143Y-105234761D01*
X181857143Y-105234761D02*
X181809524Y-105044285D01*
X181809524Y-105044285D02*
X181809524Y-104710952D01*
X181809524Y-104710952D02*
X181857143Y-104520476D01*
X181857143Y-104520476D02*
X181952381Y-104425238D01*
X181952381Y-104425238D02*
X182047619Y-104377619D01*
X183333333Y-104710952D02*
X183333333Y-105377619D01*
X182904762Y-104710952D02*
X182904762Y-105234761D01*
X182904762Y-105234761D02*
X182952381Y-105330000D01*
X182952381Y-105330000D02*
X183047619Y-105377619D01*
X183047619Y-105377619D02*
X183190476Y-105377619D01*
X183190476Y-105377619D02*
X183285714Y-105330000D01*
X183285714Y-105330000D02*
X183333333Y-105282380D01*
X183666667Y-104710952D02*
X184047619Y-104710952D01*
X183809524Y-104377619D02*
X183809524Y-105234761D01*
X183809524Y-105234761D02*
X183857143Y-105330000D01*
X183857143Y-105330000D02*
X183952381Y-105377619D01*
X183952381Y-105377619D02*
X184047619Y-105377619D01*
X185095239Y-105330000D02*
X185238096Y-105377619D01*
X185238096Y-105377619D02*
X185476191Y-105377619D01*
X185476191Y-105377619D02*
X185571429Y-105330000D01*
X185571429Y-105330000D02*
X185619048Y-105282380D01*
X185619048Y-105282380D02*
X185666667Y-105187142D01*
X185666667Y-105187142D02*
X185666667Y-105091904D01*
X185666667Y-105091904D02*
X185619048Y-104996666D01*
X185619048Y-104996666D02*
X185571429Y-104949047D01*
X185571429Y-104949047D02*
X185476191Y-104901428D01*
X185476191Y-104901428D02*
X185285715Y-104853809D01*
X185285715Y-104853809D02*
X185190477Y-104806190D01*
X185190477Y-104806190D02*
X185142858Y-104758571D01*
X185142858Y-104758571D02*
X185095239Y-104663333D01*
X185095239Y-104663333D02*
X185095239Y-104568095D01*
X185095239Y-104568095D02*
X185142858Y-104472857D01*
X185142858Y-104472857D02*
X185190477Y-104425238D01*
X185190477Y-104425238D02*
X185285715Y-104377619D01*
X185285715Y-104377619D02*
X185523810Y-104377619D01*
X185523810Y-104377619D02*
X185666667Y-104425238D01*
X186523810Y-104710952D02*
X186523810Y-105710952D01*
X186523810Y-105330000D02*
X186428572Y-105377619D01*
X186428572Y-105377619D02*
X186238096Y-105377619D01*
X186238096Y-105377619D02*
X186142858Y-105330000D01*
X186142858Y-105330000D02*
X186095239Y-105282380D01*
X186095239Y-105282380D02*
X186047620Y-105187142D01*
X186047620Y-105187142D02*
X186047620Y-104901428D01*
X186047620Y-104901428D02*
X186095239Y-104806190D01*
X186095239Y-104806190D02*
X186142858Y-104758571D01*
X186142858Y-104758571D02*
X186238096Y-104710952D01*
X186238096Y-104710952D02*
X186428572Y-104710952D01*
X186428572Y-104710952D02*
X186523810Y-104758571D01*
X187428572Y-104710952D02*
X187428572Y-105377619D01*
X187000001Y-104710952D02*
X187000001Y-105234761D01*
X187000001Y-105234761D02*
X187047620Y-105330000D01*
X187047620Y-105330000D02*
X187142858Y-105377619D01*
X187142858Y-105377619D02*
X187285715Y-105377619D01*
X187285715Y-105377619D02*
X187380953Y-105330000D01*
X187380953Y-105330000D02*
X187428572Y-105282380D01*
X169595238Y-104377619D02*
X170166666Y-104377619D01*
X169880952Y-105377619D02*
X169880952Y-104377619D01*
X170928571Y-104710952D02*
X170928571Y-105377619D01*
X170500000Y-104710952D02*
X170500000Y-105234761D01*
X170500000Y-105234761D02*
X170547619Y-105330000D01*
X170547619Y-105330000D02*
X170642857Y-105377619D01*
X170642857Y-105377619D02*
X170785714Y-105377619D01*
X170785714Y-105377619D02*
X170880952Y-105330000D01*
X170880952Y-105330000D02*
X170928571Y-105282380D01*
X171404762Y-104710952D02*
X171404762Y-105377619D01*
X171404762Y-104806190D02*
X171452381Y-104758571D01*
X171452381Y-104758571D02*
X171547619Y-104710952D01*
X171547619Y-104710952D02*
X171690476Y-104710952D01*
X171690476Y-104710952D02*
X171785714Y-104758571D01*
X171785714Y-104758571D02*
X171833333Y-104853809D01*
X171833333Y-104853809D02*
X171833333Y-105377619D01*
X172690476Y-105330000D02*
X172595238Y-105377619D01*
X172595238Y-105377619D02*
X172404762Y-105377619D01*
X172404762Y-105377619D02*
X172309524Y-105330000D01*
X172309524Y-105330000D02*
X172261905Y-105234761D01*
X172261905Y-105234761D02*
X172261905Y-104853809D01*
X172261905Y-104853809D02*
X172309524Y-104758571D01*
X172309524Y-104758571D02*
X172404762Y-104710952D01*
X172404762Y-104710952D02*
X172595238Y-104710952D01*
X172595238Y-104710952D02*
X172690476Y-104758571D01*
X172690476Y-104758571D02*
X172738095Y-104853809D01*
X172738095Y-104853809D02*
X172738095Y-104949047D01*
X172738095Y-104949047D02*
X172261905Y-105044285D01*
X137595238Y-104377619D02*
X138166666Y-104377619D01*
X137880952Y-105377619D02*
X137880952Y-104377619D01*
X138500000Y-105377619D02*
X138500000Y-104710952D01*
X138500000Y-104901428D02*
X138547619Y-104806190D01*
X138547619Y-104806190D02*
X138595238Y-104758571D01*
X138595238Y-104758571D02*
X138690476Y-104710952D01*
X138690476Y-104710952D02*
X138785714Y-104710952D01*
X139547619Y-105377619D02*
X139547619Y-104853809D01*
X139547619Y-104853809D02*
X139500000Y-104758571D01*
X139500000Y-104758571D02*
X139404762Y-104710952D01*
X139404762Y-104710952D02*
X139214286Y-104710952D01*
X139214286Y-104710952D02*
X139119048Y-104758571D01*
X139547619Y-105330000D02*
X139452381Y-105377619D01*
X139452381Y-105377619D02*
X139214286Y-105377619D01*
X139214286Y-105377619D02*
X139119048Y-105330000D01*
X139119048Y-105330000D02*
X139071429Y-105234761D01*
X139071429Y-105234761D02*
X139071429Y-105139523D01*
X139071429Y-105139523D02*
X139119048Y-105044285D01*
X139119048Y-105044285D02*
X139214286Y-104996666D01*
X139214286Y-104996666D02*
X139452381Y-104996666D01*
X139452381Y-104996666D02*
X139547619Y-104949047D01*
X140452381Y-105330000D02*
X140357143Y-105377619D01*
X140357143Y-105377619D02*
X140166667Y-105377619D01*
X140166667Y-105377619D02*
X140071429Y-105330000D01*
X140071429Y-105330000D02*
X140023810Y-105282380D01*
X140023810Y-105282380D02*
X139976191Y-105187142D01*
X139976191Y-105187142D02*
X139976191Y-104901428D01*
X139976191Y-104901428D02*
X140023810Y-104806190D01*
X140023810Y-104806190D02*
X140071429Y-104758571D01*
X140071429Y-104758571D02*
X140166667Y-104710952D01*
X140166667Y-104710952D02*
X140357143Y-104710952D01*
X140357143Y-104710952D02*
X140452381Y-104758571D01*
X140880953Y-105377619D02*
X140880953Y-104377619D01*
X140976191Y-104996666D02*
X141261905Y-105377619D01*
X141261905Y-104710952D02*
X140880953Y-105091904D01*
X124238095Y-105377619D02*
X124238095Y-104377619D01*
X124714285Y-104710952D02*
X124714285Y-105377619D01*
X124714285Y-104806190D02*
X124761904Y-104758571D01*
X124761904Y-104758571D02*
X124857142Y-104710952D01*
X124857142Y-104710952D02*
X124999999Y-104710952D01*
X124999999Y-104710952D02*
X125095237Y-104758571D01*
X125095237Y-104758571D02*
X125142856Y-104853809D01*
X125142856Y-104853809D02*
X125142856Y-105377619D01*
X125476190Y-104710952D02*
X125857142Y-104710952D01*
X125619047Y-104377619D02*
X125619047Y-105234761D01*
X125619047Y-105234761D02*
X125666666Y-105330000D01*
X125666666Y-105330000D02*
X125761904Y-105377619D01*
X125761904Y-105377619D02*
X125857142Y-105377619D01*
X126761904Y-105282380D02*
X126714285Y-105330000D01*
X126714285Y-105330000D02*
X126571428Y-105377619D01*
X126571428Y-105377619D02*
X126476190Y-105377619D01*
X126476190Y-105377619D02*
X126333333Y-105330000D01*
X126333333Y-105330000D02*
X126238095Y-105234761D01*
X126238095Y-105234761D02*
X126190476Y-105139523D01*
X126190476Y-105139523D02*
X126142857Y-104949047D01*
X126142857Y-104949047D02*
X126142857Y-104806190D01*
X126142857Y-104806190D02*
X126190476Y-104615714D01*
X126190476Y-104615714D02*
X126238095Y-104520476D01*
X126238095Y-104520476D02*
X126333333Y-104425238D01*
X126333333Y-104425238D02*
X126476190Y-104377619D01*
X126476190Y-104377619D02*
X126571428Y-104377619D01*
X126571428Y-104377619D02*
X126714285Y-104425238D01*
X126714285Y-104425238D02*
X126761904Y-104472857D01*
X127047619Y-104377619D02*
X127380952Y-105377619D01*
X127380952Y-105377619D02*
X127714285Y-104377619D01*
X128809524Y-105377619D02*
X128809524Y-104377619D01*
X129285714Y-104710952D02*
X129285714Y-105377619D01*
X129285714Y-104806190D02*
X129333333Y-104758571D01*
X129333333Y-104758571D02*
X129428571Y-104710952D01*
X129428571Y-104710952D02*
X129571428Y-104710952D01*
X129571428Y-104710952D02*
X129666666Y-104758571D01*
X129666666Y-104758571D02*
X129714285Y-104853809D01*
X129714285Y-104853809D02*
X129714285Y-105377619D01*
X130952381Y-104853809D02*
X131285714Y-104853809D01*
X131428571Y-105377619D02*
X130952381Y-105377619D01*
X130952381Y-105377619D02*
X130952381Y-104377619D01*
X130952381Y-104377619D02*
X131428571Y-104377619D01*
X131761905Y-105377619D02*
X132285714Y-104710952D01*
X131761905Y-104710952D02*
X132285714Y-105377619D01*
X132523810Y-104710952D02*
X132904762Y-104710952D01*
X132666667Y-104377619D02*
X132666667Y-105234761D01*
X132666667Y-105234761D02*
X132714286Y-105330000D01*
X132714286Y-105330000D02*
X132809524Y-105377619D01*
X132809524Y-105377619D02*
X132904762Y-105377619D01*
X133809524Y-105282380D02*
X133761905Y-105330000D01*
X133761905Y-105330000D02*
X133619048Y-105377619D01*
X133619048Y-105377619D02*
X133523810Y-105377619D01*
X133523810Y-105377619D02*
X133380953Y-105330000D01*
X133380953Y-105330000D02*
X133285715Y-105234761D01*
X133285715Y-105234761D02*
X133238096Y-105139523D01*
X133238096Y-105139523D02*
X133190477Y-104949047D01*
X133190477Y-104949047D02*
X133190477Y-104806190D01*
X133190477Y-104806190D02*
X133238096Y-104615714D01*
X133238096Y-104615714D02*
X133285715Y-104520476D01*
X133285715Y-104520476D02*
X133380953Y-104425238D01*
X133380953Y-104425238D02*
X133523810Y-104377619D01*
X133523810Y-104377619D02*
X133619048Y-104377619D01*
X133619048Y-104377619D02*
X133761905Y-104425238D01*
X133761905Y-104425238D02*
X133809524Y-104472857D01*
X134095239Y-104377619D02*
X134428572Y-105377619D01*
X134428572Y-105377619D02*
X134761905Y-104377619D01*
X116062095Y-72394666D02*
X116824000Y-72394666D01*
X117823999Y-72775619D02*
X117252571Y-72775619D01*
X117538285Y-72775619D02*
X117538285Y-71775619D01*
X117538285Y-71775619D02*
X117443047Y-71918476D01*
X117443047Y-71918476D02*
X117347809Y-72013714D01*
X117347809Y-72013714D02*
X117252571Y-72061333D01*
X118204952Y-71870857D02*
X118252571Y-71823238D01*
X118252571Y-71823238D02*
X118347809Y-71775619D01*
X118347809Y-71775619D02*
X118585904Y-71775619D01*
X118585904Y-71775619D02*
X118681142Y-71823238D01*
X118681142Y-71823238D02*
X118728761Y-71870857D01*
X118728761Y-71870857D02*
X118776380Y-71966095D01*
X118776380Y-71966095D02*
X118776380Y-72061333D01*
X118776380Y-72061333D02*
X118728761Y-72204190D01*
X118728761Y-72204190D02*
X118157333Y-72775619D01*
X118157333Y-72775619D02*
X118776380Y-72775619D01*
X119109714Y-72108952D02*
X119347809Y-72775619D01*
X119347809Y-72775619D02*
X119585904Y-72108952D01*
X141604904Y-76141238D02*
X141509666Y-76093619D01*
X141509666Y-76093619D02*
X141366809Y-76093619D01*
X141366809Y-76093619D02*
X141223952Y-76141238D01*
X141223952Y-76141238D02*
X141128714Y-76236476D01*
X141128714Y-76236476D02*
X141081095Y-76331714D01*
X141081095Y-76331714D02*
X141033476Y-76522190D01*
X141033476Y-76522190D02*
X141033476Y-76665047D01*
X141033476Y-76665047D02*
X141081095Y-76855523D01*
X141081095Y-76855523D02*
X141128714Y-76950761D01*
X141128714Y-76950761D02*
X141223952Y-77046000D01*
X141223952Y-77046000D02*
X141366809Y-77093619D01*
X141366809Y-77093619D02*
X141462047Y-77093619D01*
X141462047Y-77093619D02*
X141604904Y-77046000D01*
X141604904Y-77046000D02*
X141652523Y-76998380D01*
X141652523Y-76998380D02*
X141652523Y-76665047D01*
X141652523Y-76665047D02*
X141462047Y-76665047D01*
X142081095Y-77093619D02*
X142081095Y-76093619D01*
X142081095Y-76093619D02*
X142652523Y-77093619D01*
X142652523Y-77093619D02*
X142652523Y-76093619D01*
X143128714Y-77093619D02*
X143128714Y-76093619D01*
X143128714Y-76093619D02*
X143366809Y-76093619D01*
X143366809Y-76093619D02*
X143509666Y-76141238D01*
X143509666Y-76141238D02*
X143604904Y-76236476D01*
X143604904Y-76236476D02*
X143652523Y-76331714D01*
X143652523Y-76331714D02*
X143700142Y-76522190D01*
X143700142Y-76522190D02*
X143700142Y-76665047D01*
X143700142Y-76665047D02*
X143652523Y-76855523D01*
X143652523Y-76855523D02*
X143604904Y-76950761D01*
X143604904Y-76950761D02*
X143509666Y-77046000D01*
X143509666Y-77046000D02*
X143366809Y-77093619D01*
X143366809Y-77093619D02*
X143128714Y-77093619D01*
X125317047Y-66746238D02*
X124650380Y-65793857D01*
X124174190Y-66746238D02*
X124174190Y-64746238D01*
X124174190Y-64746238D02*
X124936095Y-64746238D01*
X124936095Y-64746238D02*
X125126571Y-64841476D01*
X125126571Y-64841476D02*
X125221809Y-64936714D01*
X125221809Y-64936714D02*
X125317047Y-65127190D01*
X125317047Y-65127190D02*
X125317047Y-65412904D01*
X125317047Y-65412904D02*
X125221809Y-65603380D01*
X125221809Y-65603380D02*
X125126571Y-65698619D01*
X125126571Y-65698619D02*
X124936095Y-65793857D01*
X124936095Y-65793857D02*
X124174190Y-65793857D01*
X126174190Y-66555761D02*
X126269428Y-66651000D01*
X126269428Y-66651000D02*
X126174190Y-66746238D01*
X126174190Y-66746238D02*
X126078952Y-66651000D01*
X126078952Y-66651000D02*
X126174190Y-66555761D01*
X126174190Y-66555761D02*
X126174190Y-66746238D01*
X127031333Y-66174809D02*
X127983714Y-66174809D01*
X126840857Y-66746238D02*
X127507523Y-64746238D01*
X127507523Y-64746238D02*
X128174190Y-66746238D01*
X128840857Y-66555761D02*
X128936095Y-66651000D01*
X128936095Y-66651000D02*
X128840857Y-66746238D01*
X128840857Y-66746238D02*
X128745619Y-66651000D01*
X128745619Y-66651000D02*
X128840857Y-66555761D01*
X128840857Y-66555761D02*
X128840857Y-66746238D01*
X129793238Y-66746238D02*
X129793238Y-64746238D01*
X129793238Y-64746238D02*
X130555143Y-64746238D01*
X130555143Y-64746238D02*
X130745619Y-64841476D01*
X130745619Y-64841476D02*
X130840857Y-64936714D01*
X130840857Y-64936714D02*
X130936095Y-65127190D01*
X130936095Y-65127190D02*
X130936095Y-65412904D01*
X130936095Y-65412904D02*
X130840857Y-65603380D01*
X130840857Y-65603380D02*
X130745619Y-65698619D01*
X130745619Y-65698619D02*
X130555143Y-65793857D01*
X130555143Y-65793857D02*
X129793238Y-65793857D01*
X132555143Y-66651000D02*
X132364667Y-66746238D01*
X132364667Y-66746238D02*
X131983714Y-66746238D01*
X131983714Y-66746238D02*
X131793238Y-66651000D01*
X131793238Y-66651000D02*
X131698000Y-66460523D01*
X131698000Y-66460523D02*
X131698000Y-65698619D01*
X131698000Y-65698619D02*
X131793238Y-65508142D01*
X131793238Y-65508142D02*
X131983714Y-65412904D01*
X131983714Y-65412904D02*
X132364667Y-65412904D01*
X132364667Y-65412904D02*
X132555143Y-65508142D01*
X132555143Y-65508142D02*
X132650381Y-65698619D01*
X132650381Y-65698619D02*
X132650381Y-65889095D01*
X132650381Y-65889095D02*
X131698000Y-66079571D01*
X133507524Y-65412904D02*
X133507524Y-66746238D01*
X133507524Y-65603380D02*
X133602762Y-65508142D01*
X133602762Y-65508142D02*
X133793238Y-65412904D01*
X133793238Y-65412904D02*
X134078953Y-65412904D01*
X134078953Y-65412904D02*
X134269429Y-65508142D01*
X134269429Y-65508142D02*
X134364667Y-65698619D01*
X134364667Y-65698619D02*
X134364667Y-66746238D01*
X135031334Y-65412904D02*
X135793238Y-65412904D01*
X135317048Y-66746238D02*
X135317048Y-65031952D01*
X135317048Y-65031952D02*
X135412286Y-64841476D01*
X135412286Y-64841476D02*
X135602762Y-64746238D01*
X135602762Y-64746238D02*
X135793238Y-64746238D01*
X136745619Y-66746238D02*
X136555143Y-66651000D01*
X136555143Y-66651000D02*
X136459905Y-66555761D01*
X136459905Y-66555761D02*
X136364667Y-66365285D01*
X136364667Y-66365285D02*
X136364667Y-65793857D01*
X136364667Y-65793857D02*
X136459905Y-65603380D01*
X136459905Y-65603380D02*
X136555143Y-65508142D01*
X136555143Y-65508142D02*
X136745619Y-65412904D01*
X136745619Y-65412904D02*
X137031334Y-65412904D01*
X137031334Y-65412904D02*
X137221810Y-65508142D01*
X137221810Y-65508142D02*
X137317048Y-65603380D01*
X137317048Y-65603380D02*
X137412286Y-65793857D01*
X137412286Y-65793857D02*
X137412286Y-66365285D01*
X137412286Y-66365285D02*
X137317048Y-66555761D01*
X137317048Y-66555761D02*
X137221810Y-66651000D01*
X137221810Y-66651000D02*
X137031334Y-66746238D01*
X137031334Y-66746238D02*
X136745619Y-66746238D01*
X138555143Y-66746238D02*
X138364667Y-66651000D01*
X138364667Y-66651000D02*
X138269429Y-66460523D01*
X138269429Y-66460523D02*
X138269429Y-64746238D01*
X140174191Y-66746238D02*
X140174191Y-64746238D01*
X140174191Y-66651000D02*
X139983715Y-66746238D01*
X139983715Y-66746238D02*
X139602762Y-66746238D01*
X139602762Y-66746238D02*
X139412286Y-66651000D01*
X139412286Y-66651000D02*
X139317048Y-66555761D01*
X139317048Y-66555761D02*
X139221810Y-66365285D01*
X139221810Y-66365285D02*
X139221810Y-65793857D01*
X139221810Y-65793857D02*
X139317048Y-65603380D01*
X139317048Y-65603380D02*
X139412286Y-65508142D01*
X139412286Y-65508142D02*
X139602762Y-65412904D01*
X139602762Y-65412904D02*
X139983715Y-65412904D01*
X139983715Y-65412904D02*
X140174191Y-65508142D01*
X123888476Y-67986238D02*
X124555142Y-69986238D01*
X124555142Y-69986238D02*
X125221809Y-67986238D01*
X127031333Y-69795761D02*
X126936095Y-69891000D01*
X126936095Y-69891000D02*
X126650381Y-69986238D01*
X126650381Y-69986238D02*
X126459905Y-69986238D01*
X126459905Y-69986238D02*
X126174190Y-69891000D01*
X126174190Y-69891000D02*
X125983714Y-69700523D01*
X125983714Y-69700523D02*
X125888476Y-69510047D01*
X125888476Y-69510047D02*
X125793238Y-69129095D01*
X125793238Y-69129095D02*
X125793238Y-68843380D01*
X125793238Y-68843380D02*
X125888476Y-68462428D01*
X125888476Y-68462428D02*
X125983714Y-68271952D01*
X125983714Y-68271952D02*
X126174190Y-68081476D01*
X126174190Y-68081476D02*
X126459905Y-67986238D01*
X126459905Y-67986238D02*
X126650381Y-67986238D01*
X126650381Y-67986238D02*
X126936095Y-68081476D01*
X126936095Y-68081476D02*
X127031333Y-68176714D01*
X128269428Y-67986238D02*
X128650381Y-67986238D01*
X128650381Y-67986238D02*
X128840857Y-68081476D01*
X128840857Y-68081476D02*
X129031333Y-68271952D01*
X129031333Y-68271952D02*
X129126571Y-68652904D01*
X129126571Y-68652904D02*
X129126571Y-69319571D01*
X129126571Y-69319571D02*
X129031333Y-69700523D01*
X129031333Y-69700523D02*
X128840857Y-69891000D01*
X128840857Y-69891000D02*
X128650381Y-69986238D01*
X128650381Y-69986238D02*
X128269428Y-69986238D01*
X128269428Y-69986238D02*
X128078952Y-69891000D01*
X128078952Y-69891000D02*
X127888476Y-69700523D01*
X127888476Y-69700523D02*
X127793238Y-69319571D01*
X127793238Y-69319571D02*
X127793238Y-68652904D01*
X127793238Y-68652904D02*
X127888476Y-68271952D01*
X127888476Y-68271952D02*
X128078952Y-68081476D01*
X128078952Y-68081476D02*
X128269428Y-67986238D01*
X132555143Y-69986238D02*
X131412286Y-69986238D01*
X131983714Y-69986238D02*
X131983714Y-67986238D01*
X131983714Y-67986238D02*
X131793238Y-68271952D01*
X131793238Y-68271952D02*
X131602762Y-68462428D01*
X131602762Y-68462428D02*
X131412286Y-68557666D01*
X133507524Y-69986238D02*
X133888476Y-69986238D01*
X133888476Y-69986238D02*
X134078953Y-69891000D01*
X134078953Y-69891000D02*
X134174191Y-69795761D01*
X134174191Y-69795761D02*
X134364667Y-69510047D01*
X134364667Y-69510047D02*
X134459905Y-69129095D01*
X134459905Y-69129095D02*
X134459905Y-68367190D01*
X134459905Y-68367190D02*
X134364667Y-68176714D01*
X134364667Y-68176714D02*
X134269429Y-68081476D01*
X134269429Y-68081476D02*
X134078953Y-67986238D01*
X134078953Y-67986238D02*
X133698000Y-67986238D01*
X133698000Y-67986238D02*
X133507524Y-68081476D01*
X133507524Y-68081476D02*
X133412286Y-68176714D01*
X133412286Y-68176714D02*
X133317048Y-68367190D01*
X133317048Y-68367190D02*
X133317048Y-68843380D01*
X133317048Y-68843380D02*
X133412286Y-69033857D01*
X133412286Y-69033857D02*
X133507524Y-69129095D01*
X133507524Y-69129095D02*
X133698000Y-69224333D01*
X133698000Y-69224333D02*
X134078953Y-69224333D01*
X134078953Y-69224333D02*
X134269429Y-69129095D01*
X134269429Y-69129095D02*
X134364667Y-69033857D01*
X134364667Y-69033857D02*
X134459905Y-68843380D01*
X135602762Y-68843380D02*
X135412286Y-68748142D01*
X135412286Y-68748142D02*
X135317048Y-68652904D01*
X135317048Y-68652904D02*
X135221810Y-68462428D01*
X135221810Y-68462428D02*
X135221810Y-68367190D01*
X135221810Y-68367190D02*
X135317048Y-68176714D01*
X135317048Y-68176714D02*
X135412286Y-68081476D01*
X135412286Y-68081476D02*
X135602762Y-67986238D01*
X135602762Y-67986238D02*
X135983715Y-67986238D01*
X135983715Y-67986238D02*
X136174191Y-68081476D01*
X136174191Y-68081476D02*
X136269429Y-68176714D01*
X136269429Y-68176714D02*
X136364667Y-68367190D01*
X136364667Y-68367190D02*
X136364667Y-68462428D01*
X136364667Y-68462428D02*
X136269429Y-68652904D01*
X136269429Y-68652904D02*
X136174191Y-68748142D01*
X136174191Y-68748142D02*
X135983715Y-68843380D01*
X135983715Y-68843380D02*
X135602762Y-68843380D01*
X135602762Y-68843380D02*
X135412286Y-68938619D01*
X135412286Y-68938619D02*
X135317048Y-69033857D01*
X135317048Y-69033857D02*
X135221810Y-69224333D01*
X135221810Y-69224333D02*
X135221810Y-69605285D01*
X135221810Y-69605285D02*
X135317048Y-69795761D01*
X135317048Y-69795761D02*
X135412286Y-69891000D01*
X135412286Y-69891000D02*
X135602762Y-69986238D01*
X135602762Y-69986238D02*
X135983715Y-69986238D01*
X135983715Y-69986238D02*
X136174191Y-69891000D01*
X136174191Y-69891000D02*
X136269429Y-69795761D01*
X136269429Y-69795761D02*
X136364667Y-69605285D01*
X136364667Y-69605285D02*
X136364667Y-69224333D01*
X136364667Y-69224333D02*
X136269429Y-69033857D01*
X136269429Y-69033857D02*
X136174191Y-68938619D01*
X136174191Y-68938619D02*
X135983715Y-68843380D01*
X138078953Y-67986238D02*
X137698000Y-67986238D01*
X137698000Y-67986238D02*
X137507524Y-68081476D01*
X137507524Y-68081476D02*
X137412286Y-68176714D01*
X137412286Y-68176714D02*
X137221810Y-68462428D01*
X137221810Y-68462428D02*
X137126572Y-68843380D01*
X137126572Y-68843380D02*
X137126572Y-69605285D01*
X137126572Y-69605285D02*
X137221810Y-69795761D01*
X137221810Y-69795761D02*
X137317048Y-69891000D01*
X137317048Y-69891000D02*
X137507524Y-69986238D01*
X137507524Y-69986238D02*
X137888477Y-69986238D01*
X137888477Y-69986238D02*
X138078953Y-69891000D01*
X138078953Y-69891000D02*
X138174191Y-69795761D01*
X138174191Y-69795761D02*
X138269429Y-69605285D01*
X138269429Y-69605285D02*
X138269429Y-69129095D01*
X138269429Y-69129095D02*
X138174191Y-68938619D01*
X138174191Y-68938619D02*
X138078953Y-68843380D01*
X138078953Y-68843380D02*
X137888477Y-68748142D01*
X137888477Y-68748142D02*
X137507524Y-68748142D01*
X137507524Y-68748142D02*
X137317048Y-68843380D01*
X137317048Y-68843380D02*
X137221810Y-68938619D01*
X137221810Y-68938619D02*
X137126572Y-69129095D01*
X168386095Y-72044619D02*
X168386095Y-71044619D01*
X168386095Y-71044619D02*
X168767047Y-71044619D01*
X168767047Y-71044619D02*
X168862285Y-71092238D01*
X168862285Y-71092238D02*
X168909904Y-71139857D01*
X168909904Y-71139857D02*
X168957523Y-71235095D01*
X168957523Y-71235095D02*
X168957523Y-71377952D01*
X168957523Y-71377952D02*
X168909904Y-71473190D01*
X168909904Y-71473190D02*
X168862285Y-71520809D01*
X168862285Y-71520809D02*
X168767047Y-71568428D01*
X168767047Y-71568428D02*
X168386095Y-71568428D01*
X169957523Y-71949380D02*
X169909904Y-71997000D01*
X169909904Y-71997000D02*
X169767047Y-72044619D01*
X169767047Y-72044619D02*
X169671809Y-72044619D01*
X169671809Y-72044619D02*
X169528952Y-71997000D01*
X169528952Y-71997000D02*
X169433714Y-71901761D01*
X169433714Y-71901761D02*
X169386095Y-71806523D01*
X169386095Y-71806523D02*
X169338476Y-71616047D01*
X169338476Y-71616047D02*
X169338476Y-71473190D01*
X169338476Y-71473190D02*
X169386095Y-71282714D01*
X169386095Y-71282714D02*
X169433714Y-71187476D01*
X169433714Y-71187476D02*
X169528952Y-71092238D01*
X169528952Y-71092238D02*
X169671809Y-71044619D01*
X169671809Y-71044619D02*
X169767047Y-71044619D01*
X169767047Y-71044619D02*
X169909904Y-71092238D01*
X169909904Y-71092238D02*
X169957523Y-71139857D01*
X170719428Y-71520809D02*
X170862285Y-71568428D01*
X170862285Y-71568428D02*
X170909904Y-71616047D01*
X170909904Y-71616047D02*
X170957523Y-71711285D01*
X170957523Y-71711285D02*
X170957523Y-71854142D01*
X170957523Y-71854142D02*
X170909904Y-71949380D01*
X170909904Y-71949380D02*
X170862285Y-71997000D01*
X170862285Y-71997000D02*
X170767047Y-72044619D01*
X170767047Y-72044619D02*
X170386095Y-72044619D01*
X170386095Y-72044619D02*
X170386095Y-71044619D01*
X170386095Y-71044619D02*
X170719428Y-71044619D01*
X170719428Y-71044619D02*
X170814666Y-71092238D01*
X170814666Y-71092238D02*
X170862285Y-71139857D01*
X170862285Y-71139857D02*
X170909904Y-71235095D01*
X170909904Y-71235095D02*
X170909904Y-71330333D01*
X170909904Y-71330333D02*
X170862285Y-71425571D01*
X170862285Y-71425571D02*
X170814666Y-71473190D01*
X170814666Y-71473190D02*
X170719428Y-71520809D01*
X170719428Y-71520809D02*
X170386095Y-71520809D01*
X172576571Y-72044619D02*
X172576571Y-71044619D01*
X172576571Y-71997000D02*
X172481333Y-72044619D01*
X172481333Y-72044619D02*
X172290857Y-72044619D01*
X172290857Y-72044619D02*
X172195619Y-71997000D01*
X172195619Y-71997000D02*
X172148000Y-71949380D01*
X172148000Y-71949380D02*
X172100381Y-71854142D01*
X172100381Y-71854142D02*
X172100381Y-71568428D01*
X172100381Y-71568428D02*
X172148000Y-71473190D01*
X172148000Y-71473190D02*
X172195619Y-71425571D01*
X172195619Y-71425571D02*
X172290857Y-71377952D01*
X172290857Y-71377952D02*
X172481333Y-71377952D01*
X172481333Y-71377952D02*
X172576571Y-71425571D01*
X173433714Y-71997000D02*
X173338476Y-72044619D01*
X173338476Y-72044619D02*
X173148000Y-72044619D01*
X173148000Y-72044619D02*
X173052762Y-71997000D01*
X173052762Y-71997000D02*
X173005143Y-71901761D01*
X173005143Y-71901761D02*
X173005143Y-71520809D01*
X173005143Y-71520809D02*
X173052762Y-71425571D01*
X173052762Y-71425571D02*
X173148000Y-71377952D01*
X173148000Y-71377952D02*
X173338476Y-71377952D01*
X173338476Y-71377952D02*
X173433714Y-71425571D01*
X173433714Y-71425571D02*
X173481333Y-71520809D01*
X173481333Y-71520809D02*
X173481333Y-71616047D01*
X173481333Y-71616047D02*
X173005143Y-71711285D01*
X173862286Y-71997000D02*
X173957524Y-72044619D01*
X173957524Y-72044619D02*
X174148000Y-72044619D01*
X174148000Y-72044619D02*
X174243238Y-71997000D01*
X174243238Y-71997000D02*
X174290857Y-71901761D01*
X174290857Y-71901761D02*
X174290857Y-71854142D01*
X174290857Y-71854142D02*
X174243238Y-71758904D01*
X174243238Y-71758904D02*
X174148000Y-71711285D01*
X174148000Y-71711285D02*
X174005143Y-71711285D01*
X174005143Y-71711285D02*
X173909905Y-71663666D01*
X173909905Y-71663666D02*
X173862286Y-71568428D01*
X173862286Y-71568428D02*
X173862286Y-71520809D01*
X173862286Y-71520809D02*
X173909905Y-71425571D01*
X173909905Y-71425571D02*
X174005143Y-71377952D01*
X174005143Y-71377952D02*
X174148000Y-71377952D01*
X174148000Y-71377952D02*
X174243238Y-71425571D01*
X174719429Y-72044619D02*
X174719429Y-71377952D01*
X174719429Y-71044619D02*
X174671810Y-71092238D01*
X174671810Y-71092238D02*
X174719429Y-71139857D01*
X174719429Y-71139857D02*
X174767048Y-71092238D01*
X174767048Y-71092238D02*
X174719429Y-71044619D01*
X174719429Y-71044619D02*
X174719429Y-71139857D01*
X175624190Y-71377952D02*
X175624190Y-72187476D01*
X175624190Y-72187476D02*
X175576571Y-72282714D01*
X175576571Y-72282714D02*
X175528952Y-72330333D01*
X175528952Y-72330333D02*
X175433714Y-72377952D01*
X175433714Y-72377952D02*
X175290857Y-72377952D01*
X175290857Y-72377952D02*
X175195619Y-72330333D01*
X175624190Y-71997000D02*
X175528952Y-72044619D01*
X175528952Y-72044619D02*
X175338476Y-72044619D01*
X175338476Y-72044619D02*
X175243238Y-71997000D01*
X175243238Y-71997000D02*
X175195619Y-71949380D01*
X175195619Y-71949380D02*
X175148000Y-71854142D01*
X175148000Y-71854142D02*
X175148000Y-71568428D01*
X175148000Y-71568428D02*
X175195619Y-71473190D01*
X175195619Y-71473190D02*
X175243238Y-71425571D01*
X175243238Y-71425571D02*
X175338476Y-71377952D01*
X175338476Y-71377952D02*
X175528952Y-71377952D01*
X175528952Y-71377952D02*
X175624190Y-71425571D01*
X176100381Y-71377952D02*
X176100381Y-72044619D01*
X176100381Y-71473190D02*
X176148000Y-71425571D01*
X176148000Y-71425571D02*
X176243238Y-71377952D01*
X176243238Y-71377952D02*
X176386095Y-71377952D01*
X176386095Y-71377952D02*
X176481333Y-71425571D01*
X176481333Y-71425571D02*
X176528952Y-71520809D01*
X176528952Y-71520809D02*
X176528952Y-72044619D01*
X177671810Y-71377952D02*
X177909905Y-72044619D01*
X177909905Y-72044619D02*
X178148000Y-71377952D01*
X179052762Y-72044619D02*
X178481334Y-72044619D01*
X178767048Y-72044619D02*
X178767048Y-71044619D01*
X178767048Y-71044619D02*
X178671810Y-71187476D01*
X178671810Y-71187476D02*
X178576572Y-71282714D01*
X178576572Y-71282714D02*
X178481334Y-71330333D01*
X179481334Y-71949380D02*
X179528953Y-71997000D01*
X179528953Y-71997000D02*
X179481334Y-72044619D01*
X179481334Y-72044619D02*
X179433715Y-71997000D01*
X179433715Y-71997000D02*
X179481334Y-71949380D01*
X179481334Y-71949380D02*
X179481334Y-72044619D01*
X180148000Y-71044619D02*
X180243238Y-71044619D01*
X180243238Y-71044619D02*
X180338476Y-71092238D01*
X180338476Y-71092238D02*
X180386095Y-71139857D01*
X180386095Y-71139857D02*
X180433714Y-71235095D01*
X180433714Y-71235095D02*
X180481333Y-71425571D01*
X180481333Y-71425571D02*
X180481333Y-71663666D01*
X180481333Y-71663666D02*
X180433714Y-71854142D01*
X180433714Y-71854142D02*
X180386095Y-71949380D01*
X180386095Y-71949380D02*
X180338476Y-71997000D01*
X180338476Y-71997000D02*
X180243238Y-72044619D01*
X180243238Y-72044619D02*
X180148000Y-72044619D01*
X180148000Y-72044619D02*
X180052762Y-71997000D01*
X180052762Y-71997000D02*
X180005143Y-71949380D01*
X180005143Y-71949380D02*
X179957524Y-71854142D01*
X179957524Y-71854142D02*
X179909905Y-71663666D01*
X179909905Y-71663666D02*
X179909905Y-71425571D01*
X179909905Y-71425571D02*
X179957524Y-71235095D01*
X179957524Y-71235095D02*
X180005143Y-71139857D01*
X180005143Y-71139857D02*
X180052762Y-71092238D01*
X180052762Y-71092238D02*
X180148000Y-71044619D01*
X168338476Y-73378904D02*
X168814666Y-73378904D01*
X168243238Y-73664619D02*
X168576571Y-72664619D01*
X168576571Y-72664619D02*
X168909904Y-73664619D01*
X169386095Y-73664619D02*
X169290857Y-73617000D01*
X169290857Y-73617000D02*
X169243238Y-73521761D01*
X169243238Y-73521761D02*
X169243238Y-72664619D01*
X169767048Y-73664619D02*
X169767048Y-72997952D01*
X169767048Y-72664619D02*
X169719429Y-72712238D01*
X169719429Y-72712238D02*
X169767048Y-72759857D01*
X169767048Y-72759857D02*
X169814667Y-72712238D01*
X169814667Y-72712238D02*
X169767048Y-72664619D01*
X169767048Y-72664619D02*
X169767048Y-72759857D01*
X170195619Y-73617000D02*
X170290857Y-73664619D01*
X170290857Y-73664619D02*
X170481333Y-73664619D01*
X170481333Y-73664619D02*
X170576571Y-73617000D01*
X170576571Y-73617000D02*
X170624190Y-73521761D01*
X170624190Y-73521761D02*
X170624190Y-73474142D01*
X170624190Y-73474142D02*
X170576571Y-73378904D01*
X170576571Y-73378904D02*
X170481333Y-73331285D01*
X170481333Y-73331285D02*
X170338476Y-73331285D01*
X170338476Y-73331285D02*
X170243238Y-73283666D01*
X170243238Y-73283666D02*
X170195619Y-73188428D01*
X170195619Y-73188428D02*
X170195619Y-73140809D01*
X170195619Y-73140809D02*
X170243238Y-73045571D01*
X170243238Y-73045571D02*
X170338476Y-72997952D01*
X170338476Y-72997952D02*
X170481333Y-72997952D01*
X170481333Y-72997952D02*
X170576571Y-73045571D01*
X170909905Y-72997952D02*
X171290857Y-72997952D01*
X171052762Y-72664619D02*
X171052762Y-73521761D01*
X171052762Y-73521761D02*
X171100381Y-73617000D01*
X171100381Y-73617000D02*
X171195619Y-73664619D01*
X171195619Y-73664619D02*
X171290857Y-73664619D01*
X172005143Y-73617000D02*
X171909905Y-73664619D01*
X171909905Y-73664619D02*
X171719429Y-73664619D01*
X171719429Y-73664619D02*
X171624191Y-73617000D01*
X171624191Y-73617000D02*
X171576572Y-73521761D01*
X171576572Y-73521761D02*
X171576572Y-73140809D01*
X171576572Y-73140809D02*
X171624191Y-73045571D01*
X171624191Y-73045571D02*
X171719429Y-72997952D01*
X171719429Y-72997952D02*
X171909905Y-72997952D01*
X171909905Y-72997952D02*
X172005143Y-73045571D01*
X172005143Y-73045571D02*
X172052762Y-73140809D01*
X172052762Y-73140809D02*
X172052762Y-73236047D01*
X172052762Y-73236047D02*
X171576572Y-73331285D01*
X172481334Y-73664619D02*
X172481334Y-72997952D01*
X172481334Y-73188428D02*
X172528953Y-73093190D01*
X172528953Y-73093190D02*
X172576572Y-73045571D01*
X172576572Y-73045571D02*
X172671810Y-72997952D01*
X172671810Y-72997952D02*
X172767048Y-72997952D01*
X174338477Y-73664619D02*
X173862287Y-73664619D01*
X173862287Y-73664619D02*
X173862287Y-72664619D01*
X175052763Y-73617000D02*
X174957525Y-73664619D01*
X174957525Y-73664619D02*
X174767049Y-73664619D01*
X174767049Y-73664619D02*
X174671811Y-73617000D01*
X174671811Y-73617000D02*
X174624192Y-73521761D01*
X174624192Y-73521761D02*
X174624192Y-73140809D01*
X174624192Y-73140809D02*
X174671811Y-73045571D01*
X174671811Y-73045571D02*
X174767049Y-72997952D01*
X174767049Y-72997952D02*
X174957525Y-72997952D01*
X174957525Y-72997952D02*
X175052763Y-73045571D01*
X175052763Y-73045571D02*
X175100382Y-73140809D01*
X175100382Y-73140809D02*
X175100382Y-73236047D01*
X175100382Y-73236047D02*
X174624192Y-73331285D01*
X175433716Y-72997952D02*
X175624192Y-73664619D01*
X175624192Y-73664619D02*
X175814668Y-73188428D01*
X175814668Y-73188428D02*
X176005144Y-73664619D01*
X176005144Y-73664619D02*
X176195620Y-72997952D01*
X176576573Y-73664619D02*
X176576573Y-72997952D01*
X176576573Y-72664619D02*
X176528954Y-72712238D01*
X176528954Y-72712238D02*
X176576573Y-72759857D01*
X176576573Y-72759857D02*
X176624192Y-72712238D01*
X176624192Y-72712238D02*
X176576573Y-72664619D01*
X176576573Y-72664619D02*
X176576573Y-72759857D01*
X177005144Y-73617000D02*
X177100382Y-73664619D01*
X177100382Y-73664619D02*
X177290858Y-73664619D01*
X177290858Y-73664619D02*
X177386096Y-73617000D01*
X177386096Y-73617000D02*
X177433715Y-73521761D01*
X177433715Y-73521761D02*
X177433715Y-73474142D01*
X177433715Y-73474142D02*
X177386096Y-73378904D01*
X177386096Y-73378904D02*
X177290858Y-73331285D01*
X177290858Y-73331285D02*
X177148001Y-73331285D01*
X177148001Y-73331285D02*
X177052763Y-73283666D01*
X177052763Y-73283666D02*
X177005144Y-73188428D01*
X177005144Y-73188428D02*
X177005144Y-73140809D01*
X177005144Y-73140809D02*
X177052763Y-73045571D01*
X177052763Y-73045571D02*
X177148001Y-72997952D01*
X177148001Y-72997952D02*
X177290858Y-72997952D01*
X177290858Y-72997952D02*
X177386096Y-73045571D01*
X177862287Y-73283666D02*
X178624192Y-73283666D01*
X179433715Y-73140809D02*
X179576572Y-73188428D01*
X179576572Y-73188428D02*
X179624191Y-73236047D01*
X179624191Y-73236047D02*
X179671810Y-73331285D01*
X179671810Y-73331285D02*
X179671810Y-73474142D01*
X179671810Y-73474142D02*
X179624191Y-73569380D01*
X179624191Y-73569380D02*
X179576572Y-73617000D01*
X179576572Y-73617000D02*
X179481334Y-73664619D01*
X179481334Y-73664619D02*
X179100382Y-73664619D01*
X179100382Y-73664619D02*
X179100382Y-72664619D01*
X179100382Y-72664619D02*
X179433715Y-72664619D01*
X179433715Y-72664619D02*
X179528953Y-72712238D01*
X179528953Y-72712238D02*
X179576572Y-72759857D01*
X179576572Y-72759857D02*
X179624191Y-72855095D01*
X179624191Y-72855095D02*
X179624191Y-72950333D01*
X179624191Y-72950333D02*
X179576572Y-73045571D01*
X179576572Y-73045571D02*
X179528953Y-73093190D01*
X179528953Y-73093190D02*
X179433715Y-73140809D01*
X179433715Y-73140809D02*
X179100382Y-73140809D01*
X180243239Y-73664619D02*
X180148001Y-73617000D01*
X180148001Y-73617000D02*
X180100382Y-73569380D01*
X180100382Y-73569380D02*
X180052763Y-73474142D01*
X180052763Y-73474142D02*
X180052763Y-73188428D01*
X180052763Y-73188428D02*
X180100382Y-73093190D01*
X180100382Y-73093190D02*
X180148001Y-73045571D01*
X180148001Y-73045571D02*
X180243239Y-72997952D01*
X180243239Y-72997952D02*
X180386096Y-72997952D01*
X180386096Y-72997952D02*
X180481334Y-73045571D01*
X180481334Y-73045571D02*
X180528953Y-73093190D01*
X180528953Y-73093190D02*
X180576572Y-73188428D01*
X180576572Y-73188428D02*
X180576572Y-73474142D01*
X180576572Y-73474142D02*
X180528953Y-73569380D01*
X180528953Y-73569380D02*
X180481334Y-73617000D01*
X180481334Y-73617000D02*
X180386096Y-73664619D01*
X180386096Y-73664619D02*
X180243239Y-73664619D01*
X180909906Y-72997952D02*
X181100382Y-73664619D01*
X181100382Y-73664619D02*
X181290858Y-73188428D01*
X181290858Y-73188428D02*
X181481334Y-73664619D01*
X181481334Y-73664619D02*
X181671810Y-72997952D01*
X182433715Y-73617000D02*
X182338477Y-73664619D01*
X182338477Y-73664619D02*
X182148001Y-73664619D01*
X182148001Y-73664619D02*
X182052763Y-73617000D01*
X182052763Y-73617000D02*
X182005144Y-73521761D01*
X182005144Y-73521761D02*
X182005144Y-73140809D01*
X182005144Y-73140809D02*
X182052763Y-73045571D01*
X182052763Y-73045571D02*
X182148001Y-72997952D01*
X182148001Y-72997952D02*
X182338477Y-72997952D01*
X182338477Y-72997952D02*
X182433715Y-73045571D01*
X182433715Y-73045571D02*
X182481334Y-73140809D01*
X182481334Y-73140809D02*
X182481334Y-73236047D01*
X182481334Y-73236047D02*
X182005144Y-73331285D01*
X182909906Y-72997952D02*
X182909906Y-73664619D01*
X182909906Y-73093190D02*
X182957525Y-73045571D01*
X182957525Y-73045571D02*
X183052763Y-72997952D01*
X183052763Y-72997952D02*
X183195620Y-72997952D01*
X183195620Y-72997952D02*
X183290858Y-73045571D01*
X183290858Y-73045571D02*
X183338477Y-73140809D01*
X183338477Y-73140809D02*
X183338477Y-73664619D01*
D11*
%TO.C,J4*%
X144827666Y-74138619D02*
X144827666Y-74852904D01*
X144827666Y-74852904D02*
X144780047Y-74995761D01*
X144780047Y-74995761D02*
X144684809Y-75091000D01*
X144684809Y-75091000D02*
X144541952Y-75138619D01*
X144541952Y-75138619D02*
X144446714Y-75138619D01*
X145732428Y-74471952D02*
X145732428Y-75138619D01*
X145494333Y-74091000D02*
X145256238Y-74805285D01*
X145256238Y-74805285D02*
X145875285Y-74805285D01*
%TO.C,U3*%
X146939095Y-69312619D02*
X146939095Y-70122142D01*
X146939095Y-70122142D02*
X146986714Y-70217380D01*
X146986714Y-70217380D02*
X147034333Y-70265000D01*
X147034333Y-70265000D02*
X147129571Y-70312619D01*
X147129571Y-70312619D02*
X147320047Y-70312619D01*
X147320047Y-70312619D02*
X147415285Y-70265000D01*
X147415285Y-70265000D02*
X147462904Y-70217380D01*
X147462904Y-70217380D02*
X147510523Y-70122142D01*
X147510523Y-70122142D02*
X147510523Y-69312619D01*
X147891476Y-69312619D02*
X148510523Y-69312619D01*
X148510523Y-69312619D02*
X148177190Y-69693571D01*
X148177190Y-69693571D02*
X148320047Y-69693571D01*
X148320047Y-69693571D02*
X148415285Y-69741190D01*
X148415285Y-69741190D02*
X148462904Y-69788809D01*
X148462904Y-69788809D02*
X148510523Y-69884047D01*
X148510523Y-69884047D02*
X148510523Y-70122142D01*
X148510523Y-70122142D02*
X148462904Y-70217380D01*
X148462904Y-70217380D02*
X148415285Y-70265000D01*
X148415285Y-70265000D02*
X148320047Y-70312619D01*
X148320047Y-70312619D02*
X148034333Y-70312619D01*
X148034333Y-70312619D02*
X147939095Y-70265000D01*
X147939095Y-70265000D02*
X147891476Y-70217380D01*
%TO.C,R4*%
X170769619Y-85256666D02*
X170293428Y-85589999D01*
X170769619Y-85828094D02*
X169769619Y-85828094D01*
X169769619Y-85828094D02*
X169769619Y-85447142D01*
X169769619Y-85447142D02*
X169817238Y-85351904D01*
X169817238Y-85351904D02*
X169864857Y-85304285D01*
X169864857Y-85304285D02*
X169960095Y-85256666D01*
X169960095Y-85256666D02*
X170102952Y-85256666D01*
X170102952Y-85256666D02*
X170198190Y-85304285D01*
X170198190Y-85304285D02*
X170245809Y-85351904D01*
X170245809Y-85351904D02*
X170293428Y-85447142D01*
X170293428Y-85447142D02*
X170293428Y-85828094D01*
X170102952Y-84399523D02*
X170769619Y-84399523D01*
X169722000Y-84637618D02*
X170436285Y-84875713D01*
X170436285Y-84875713D02*
X170436285Y-84256666D01*
%TO.C,R8*%
X187793333Y-70142619D02*
X187460000Y-69666428D01*
X187221905Y-70142619D02*
X187221905Y-69142619D01*
X187221905Y-69142619D02*
X187602857Y-69142619D01*
X187602857Y-69142619D02*
X187698095Y-69190238D01*
X187698095Y-69190238D02*
X187745714Y-69237857D01*
X187745714Y-69237857D02*
X187793333Y-69333095D01*
X187793333Y-69333095D02*
X187793333Y-69475952D01*
X187793333Y-69475952D02*
X187745714Y-69571190D01*
X187745714Y-69571190D02*
X187698095Y-69618809D01*
X187698095Y-69618809D02*
X187602857Y-69666428D01*
X187602857Y-69666428D02*
X187221905Y-69666428D01*
X188364762Y-69571190D02*
X188269524Y-69523571D01*
X188269524Y-69523571D02*
X188221905Y-69475952D01*
X188221905Y-69475952D02*
X188174286Y-69380714D01*
X188174286Y-69380714D02*
X188174286Y-69333095D01*
X188174286Y-69333095D02*
X188221905Y-69237857D01*
X188221905Y-69237857D02*
X188269524Y-69190238D01*
X188269524Y-69190238D02*
X188364762Y-69142619D01*
X188364762Y-69142619D02*
X188555238Y-69142619D01*
X188555238Y-69142619D02*
X188650476Y-69190238D01*
X188650476Y-69190238D02*
X188698095Y-69237857D01*
X188698095Y-69237857D02*
X188745714Y-69333095D01*
X188745714Y-69333095D02*
X188745714Y-69380714D01*
X188745714Y-69380714D02*
X188698095Y-69475952D01*
X188698095Y-69475952D02*
X188650476Y-69523571D01*
X188650476Y-69523571D02*
X188555238Y-69571190D01*
X188555238Y-69571190D02*
X188364762Y-69571190D01*
X188364762Y-69571190D02*
X188269524Y-69618809D01*
X188269524Y-69618809D02*
X188221905Y-69666428D01*
X188221905Y-69666428D02*
X188174286Y-69761666D01*
X188174286Y-69761666D02*
X188174286Y-69952142D01*
X188174286Y-69952142D02*
X188221905Y-70047380D01*
X188221905Y-70047380D02*
X188269524Y-70095000D01*
X188269524Y-70095000D02*
X188364762Y-70142619D01*
X188364762Y-70142619D02*
X188555238Y-70142619D01*
X188555238Y-70142619D02*
X188650476Y-70095000D01*
X188650476Y-70095000D02*
X188698095Y-70047380D01*
X188698095Y-70047380D02*
X188745714Y-69952142D01*
X188745714Y-69952142D02*
X188745714Y-69761666D01*
X188745714Y-69761666D02*
X188698095Y-69666428D01*
X188698095Y-69666428D02*
X188650476Y-69618809D01*
X188650476Y-69618809D02*
X188555238Y-69571190D01*
%TO.C,C2*%
X176897380Y-89193666D02*
X176945000Y-89241285D01*
X176945000Y-89241285D02*
X176992619Y-89384142D01*
X176992619Y-89384142D02*
X176992619Y-89479380D01*
X176992619Y-89479380D02*
X176945000Y-89622237D01*
X176945000Y-89622237D02*
X176849761Y-89717475D01*
X176849761Y-89717475D02*
X176754523Y-89765094D01*
X176754523Y-89765094D02*
X176564047Y-89812713D01*
X176564047Y-89812713D02*
X176421190Y-89812713D01*
X176421190Y-89812713D02*
X176230714Y-89765094D01*
X176230714Y-89765094D02*
X176135476Y-89717475D01*
X176135476Y-89717475D02*
X176040238Y-89622237D01*
X176040238Y-89622237D02*
X175992619Y-89479380D01*
X175992619Y-89479380D02*
X175992619Y-89384142D01*
X175992619Y-89384142D02*
X176040238Y-89241285D01*
X176040238Y-89241285D02*
X176087857Y-89193666D01*
X176087857Y-88812713D02*
X176040238Y-88765094D01*
X176040238Y-88765094D02*
X175992619Y-88669856D01*
X175992619Y-88669856D02*
X175992619Y-88431761D01*
X175992619Y-88431761D02*
X176040238Y-88336523D01*
X176040238Y-88336523D02*
X176087857Y-88288904D01*
X176087857Y-88288904D02*
X176183095Y-88241285D01*
X176183095Y-88241285D02*
X176278333Y-88241285D01*
X176278333Y-88241285D02*
X176421190Y-88288904D01*
X176421190Y-88288904D02*
X176992619Y-88860332D01*
X176992619Y-88860332D02*
X176992619Y-88241285D01*
%TO.C,C4*%
X166677380Y-74826666D02*
X166725000Y-74874285D01*
X166725000Y-74874285D02*
X166772619Y-75017142D01*
X166772619Y-75017142D02*
X166772619Y-75112380D01*
X166772619Y-75112380D02*
X166725000Y-75255237D01*
X166725000Y-75255237D02*
X166629761Y-75350475D01*
X166629761Y-75350475D02*
X166534523Y-75398094D01*
X166534523Y-75398094D02*
X166344047Y-75445713D01*
X166344047Y-75445713D02*
X166201190Y-75445713D01*
X166201190Y-75445713D02*
X166010714Y-75398094D01*
X166010714Y-75398094D02*
X165915476Y-75350475D01*
X165915476Y-75350475D02*
X165820238Y-75255237D01*
X165820238Y-75255237D02*
X165772619Y-75112380D01*
X165772619Y-75112380D02*
X165772619Y-75017142D01*
X165772619Y-75017142D02*
X165820238Y-74874285D01*
X165820238Y-74874285D02*
X165867857Y-74826666D01*
X166105952Y-73969523D02*
X166772619Y-73969523D01*
X165725000Y-74207618D02*
X166439285Y-74445713D01*
X166439285Y-74445713D02*
X166439285Y-73826666D01*
%TO.C,R2*%
X141305619Y-91352666D02*
X140829428Y-91685999D01*
X141305619Y-91924094D02*
X140305619Y-91924094D01*
X140305619Y-91924094D02*
X140305619Y-91543142D01*
X140305619Y-91543142D02*
X140353238Y-91447904D01*
X140353238Y-91447904D02*
X140400857Y-91400285D01*
X140400857Y-91400285D02*
X140496095Y-91352666D01*
X140496095Y-91352666D02*
X140638952Y-91352666D01*
X140638952Y-91352666D02*
X140734190Y-91400285D01*
X140734190Y-91400285D02*
X140781809Y-91447904D01*
X140781809Y-91447904D02*
X140829428Y-91543142D01*
X140829428Y-91543142D02*
X140829428Y-91924094D01*
X140400857Y-90971713D02*
X140353238Y-90924094D01*
X140353238Y-90924094D02*
X140305619Y-90828856D01*
X140305619Y-90828856D02*
X140305619Y-90590761D01*
X140305619Y-90590761D02*
X140353238Y-90495523D01*
X140353238Y-90495523D02*
X140400857Y-90447904D01*
X140400857Y-90447904D02*
X140496095Y-90400285D01*
X140496095Y-90400285D02*
X140591333Y-90400285D01*
X140591333Y-90400285D02*
X140734190Y-90447904D01*
X140734190Y-90447904D02*
X141305619Y-91019332D01*
X141305619Y-91019332D02*
X141305619Y-90400285D01*
%TO.C,U2*%
X147193095Y-83282619D02*
X147193095Y-84092142D01*
X147193095Y-84092142D02*
X147240714Y-84187380D01*
X147240714Y-84187380D02*
X147288333Y-84235000D01*
X147288333Y-84235000D02*
X147383571Y-84282619D01*
X147383571Y-84282619D02*
X147574047Y-84282619D01*
X147574047Y-84282619D02*
X147669285Y-84235000D01*
X147669285Y-84235000D02*
X147716904Y-84187380D01*
X147716904Y-84187380D02*
X147764523Y-84092142D01*
X147764523Y-84092142D02*
X147764523Y-83282619D01*
X148193095Y-83377857D02*
X148240714Y-83330238D01*
X148240714Y-83330238D02*
X148335952Y-83282619D01*
X148335952Y-83282619D02*
X148574047Y-83282619D01*
X148574047Y-83282619D02*
X148669285Y-83330238D01*
X148669285Y-83330238D02*
X148716904Y-83377857D01*
X148716904Y-83377857D02*
X148764523Y-83473095D01*
X148764523Y-83473095D02*
X148764523Y-83568333D01*
X148764523Y-83568333D02*
X148716904Y-83711190D01*
X148716904Y-83711190D02*
X148145476Y-84282619D01*
X148145476Y-84282619D02*
X148764523Y-84282619D01*
%TO.C,SW1*%
X125285667Y-99348000D02*
X125428524Y-99395619D01*
X125428524Y-99395619D02*
X125666619Y-99395619D01*
X125666619Y-99395619D02*
X125761857Y-99348000D01*
X125761857Y-99348000D02*
X125809476Y-99300380D01*
X125809476Y-99300380D02*
X125857095Y-99205142D01*
X125857095Y-99205142D02*
X125857095Y-99109904D01*
X125857095Y-99109904D02*
X125809476Y-99014666D01*
X125809476Y-99014666D02*
X125761857Y-98967047D01*
X125761857Y-98967047D02*
X125666619Y-98919428D01*
X125666619Y-98919428D02*
X125476143Y-98871809D01*
X125476143Y-98871809D02*
X125380905Y-98824190D01*
X125380905Y-98824190D02*
X125333286Y-98776571D01*
X125333286Y-98776571D02*
X125285667Y-98681333D01*
X125285667Y-98681333D02*
X125285667Y-98586095D01*
X125285667Y-98586095D02*
X125333286Y-98490857D01*
X125333286Y-98490857D02*
X125380905Y-98443238D01*
X125380905Y-98443238D02*
X125476143Y-98395619D01*
X125476143Y-98395619D02*
X125714238Y-98395619D01*
X125714238Y-98395619D02*
X125857095Y-98443238D01*
X126190429Y-98395619D02*
X126428524Y-99395619D01*
X126428524Y-99395619D02*
X126619000Y-98681333D01*
X126619000Y-98681333D02*
X126809476Y-99395619D01*
X126809476Y-99395619D02*
X127047572Y-98395619D01*
X127952333Y-99395619D02*
X127380905Y-99395619D01*
X127666619Y-99395619D02*
X127666619Y-98395619D01*
X127666619Y-98395619D02*
X127571381Y-98538476D01*
X127571381Y-98538476D02*
X127476143Y-98633714D01*
X127476143Y-98633714D02*
X127380905Y-98681333D01*
%TO.C,RV1*%
X136056761Y-99395619D02*
X135723428Y-98919428D01*
X135485333Y-99395619D02*
X135485333Y-98395619D01*
X135485333Y-98395619D02*
X135866285Y-98395619D01*
X135866285Y-98395619D02*
X135961523Y-98443238D01*
X135961523Y-98443238D02*
X136009142Y-98490857D01*
X136009142Y-98490857D02*
X136056761Y-98586095D01*
X136056761Y-98586095D02*
X136056761Y-98728952D01*
X136056761Y-98728952D02*
X136009142Y-98824190D01*
X136009142Y-98824190D02*
X135961523Y-98871809D01*
X135961523Y-98871809D02*
X135866285Y-98919428D01*
X135866285Y-98919428D02*
X135485333Y-98919428D01*
X136342476Y-98395619D02*
X136675809Y-99395619D01*
X136675809Y-99395619D02*
X137009142Y-98395619D01*
X137866285Y-99395619D02*
X137294857Y-99395619D01*
X137580571Y-99395619D02*
X137580571Y-98395619D01*
X137580571Y-98395619D02*
X137485333Y-98538476D01*
X137485333Y-98538476D02*
X137390095Y-98633714D01*
X137390095Y-98633714D02*
X137294857Y-98681333D01*
%TO.C,RV2*%
X167679761Y-99268619D02*
X167346428Y-98792428D01*
X167108333Y-99268619D02*
X167108333Y-98268619D01*
X167108333Y-98268619D02*
X167489285Y-98268619D01*
X167489285Y-98268619D02*
X167584523Y-98316238D01*
X167584523Y-98316238D02*
X167632142Y-98363857D01*
X167632142Y-98363857D02*
X167679761Y-98459095D01*
X167679761Y-98459095D02*
X167679761Y-98601952D01*
X167679761Y-98601952D02*
X167632142Y-98697190D01*
X167632142Y-98697190D02*
X167584523Y-98744809D01*
X167584523Y-98744809D02*
X167489285Y-98792428D01*
X167489285Y-98792428D02*
X167108333Y-98792428D01*
X167965476Y-98268619D02*
X168298809Y-99268619D01*
X168298809Y-99268619D02*
X168632142Y-98268619D01*
X168917857Y-98363857D02*
X168965476Y-98316238D01*
X168965476Y-98316238D02*
X169060714Y-98268619D01*
X169060714Y-98268619D02*
X169298809Y-98268619D01*
X169298809Y-98268619D02*
X169394047Y-98316238D01*
X169394047Y-98316238D02*
X169441666Y-98363857D01*
X169441666Y-98363857D02*
X169489285Y-98459095D01*
X169489285Y-98459095D02*
X169489285Y-98554333D01*
X169489285Y-98554333D02*
X169441666Y-98697190D01*
X169441666Y-98697190D02*
X168870238Y-99268619D01*
X168870238Y-99268619D02*
X169489285Y-99268619D01*
%TO.C,U1*%
X187198095Y-75872619D02*
X187198095Y-76682142D01*
X187198095Y-76682142D02*
X187245714Y-76777380D01*
X187245714Y-76777380D02*
X187293333Y-76825000D01*
X187293333Y-76825000D02*
X187388571Y-76872619D01*
X187388571Y-76872619D02*
X187579047Y-76872619D01*
X187579047Y-76872619D02*
X187674285Y-76825000D01*
X187674285Y-76825000D02*
X187721904Y-76777380D01*
X187721904Y-76777380D02*
X187769523Y-76682142D01*
X187769523Y-76682142D02*
X187769523Y-75872619D01*
X188769523Y-76872619D02*
X188198095Y-76872619D01*
X188483809Y-76872619D02*
X188483809Y-75872619D01*
X188483809Y-75872619D02*
X188388571Y-76015476D01*
X188388571Y-76015476D02*
X188293333Y-76110714D01*
X188293333Y-76110714D02*
X188198095Y-76158333D01*
%TO.C,Q1*%
X156114761Y-66597857D02*
X156019523Y-66550238D01*
X156019523Y-66550238D02*
X155924285Y-66455000D01*
X155924285Y-66455000D02*
X155781428Y-66312142D01*
X155781428Y-66312142D02*
X155686190Y-66264523D01*
X155686190Y-66264523D02*
X155590952Y-66264523D01*
X155638571Y-66502619D02*
X155543333Y-66455000D01*
X155543333Y-66455000D02*
X155448095Y-66359761D01*
X155448095Y-66359761D02*
X155400476Y-66169285D01*
X155400476Y-66169285D02*
X155400476Y-65835952D01*
X155400476Y-65835952D02*
X155448095Y-65645476D01*
X155448095Y-65645476D02*
X155543333Y-65550238D01*
X155543333Y-65550238D02*
X155638571Y-65502619D01*
X155638571Y-65502619D02*
X155829047Y-65502619D01*
X155829047Y-65502619D02*
X155924285Y-65550238D01*
X155924285Y-65550238D02*
X156019523Y-65645476D01*
X156019523Y-65645476D02*
X156067142Y-65835952D01*
X156067142Y-65835952D02*
X156067142Y-66169285D01*
X156067142Y-66169285D02*
X156019523Y-66359761D01*
X156019523Y-66359761D02*
X155924285Y-66455000D01*
X155924285Y-66455000D02*
X155829047Y-66502619D01*
X155829047Y-66502619D02*
X155638571Y-66502619D01*
X157019523Y-66502619D02*
X156448095Y-66502619D01*
X156733809Y-66502619D02*
X156733809Y-65502619D01*
X156733809Y-65502619D02*
X156638571Y-65645476D01*
X156638571Y-65645476D02*
X156543333Y-65740714D01*
X156543333Y-65740714D02*
X156448095Y-65788333D01*
%TO.C,R5*%
X199725619Y-77382666D02*
X199249428Y-77715999D01*
X199725619Y-77954094D02*
X198725619Y-77954094D01*
X198725619Y-77954094D02*
X198725619Y-77573142D01*
X198725619Y-77573142D02*
X198773238Y-77477904D01*
X198773238Y-77477904D02*
X198820857Y-77430285D01*
X198820857Y-77430285D02*
X198916095Y-77382666D01*
X198916095Y-77382666D02*
X199058952Y-77382666D01*
X199058952Y-77382666D02*
X199154190Y-77430285D01*
X199154190Y-77430285D02*
X199201809Y-77477904D01*
X199201809Y-77477904D02*
X199249428Y-77573142D01*
X199249428Y-77573142D02*
X199249428Y-77954094D01*
X198725619Y-76477904D02*
X198725619Y-76954094D01*
X198725619Y-76954094D02*
X199201809Y-77001713D01*
X199201809Y-77001713D02*
X199154190Y-76954094D01*
X199154190Y-76954094D02*
X199106571Y-76858856D01*
X199106571Y-76858856D02*
X199106571Y-76620761D01*
X199106571Y-76620761D02*
X199154190Y-76525523D01*
X199154190Y-76525523D02*
X199201809Y-76477904D01*
X199201809Y-76477904D02*
X199297047Y-76430285D01*
X199297047Y-76430285D02*
X199535142Y-76430285D01*
X199535142Y-76430285D02*
X199630380Y-76477904D01*
X199630380Y-76477904D02*
X199678000Y-76525523D01*
X199678000Y-76525523D02*
X199725619Y-76620761D01*
X199725619Y-76620761D02*
X199725619Y-76858856D01*
X199725619Y-76858856D02*
X199678000Y-76954094D01*
X199678000Y-76954094D02*
X199630380Y-77001713D01*
%TO.C,R7*%
X165689619Y-85129666D02*
X165213428Y-85462999D01*
X165689619Y-85701094D02*
X164689619Y-85701094D01*
X164689619Y-85701094D02*
X164689619Y-85320142D01*
X164689619Y-85320142D02*
X164737238Y-85224904D01*
X164737238Y-85224904D02*
X164784857Y-85177285D01*
X164784857Y-85177285D02*
X164880095Y-85129666D01*
X164880095Y-85129666D02*
X165022952Y-85129666D01*
X165022952Y-85129666D02*
X165118190Y-85177285D01*
X165118190Y-85177285D02*
X165165809Y-85224904D01*
X165165809Y-85224904D02*
X165213428Y-85320142D01*
X165213428Y-85320142D02*
X165213428Y-85701094D01*
X164689619Y-84796332D02*
X164689619Y-84129666D01*
X164689619Y-84129666D02*
X165689619Y-84558237D01*
%TO.C,R1*%
X133183333Y-93342619D02*
X132850000Y-92866428D01*
X132611905Y-93342619D02*
X132611905Y-92342619D01*
X132611905Y-92342619D02*
X132992857Y-92342619D01*
X132992857Y-92342619D02*
X133088095Y-92390238D01*
X133088095Y-92390238D02*
X133135714Y-92437857D01*
X133135714Y-92437857D02*
X133183333Y-92533095D01*
X133183333Y-92533095D02*
X133183333Y-92675952D01*
X133183333Y-92675952D02*
X133135714Y-92771190D01*
X133135714Y-92771190D02*
X133088095Y-92818809D01*
X133088095Y-92818809D02*
X132992857Y-92866428D01*
X132992857Y-92866428D02*
X132611905Y-92866428D01*
X134135714Y-93342619D02*
X133564286Y-93342619D01*
X133850000Y-93342619D02*
X133850000Y-92342619D01*
X133850000Y-92342619D02*
X133754762Y-92485476D01*
X133754762Y-92485476D02*
X133659524Y-92580714D01*
X133659524Y-92580714D02*
X133564286Y-92628333D01*
%TO.C,D1*%
X160902619Y-98528094D02*
X159902619Y-98528094D01*
X159902619Y-98528094D02*
X159902619Y-98289999D01*
X159902619Y-98289999D02*
X159950238Y-98147142D01*
X159950238Y-98147142D02*
X160045476Y-98051904D01*
X160045476Y-98051904D02*
X160140714Y-98004285D01*
X160140714Y-98004285D02*
X160331190Y-97956666D01*
X160331190Y-97956666D02*
X160474047Y-97956666D01*
X160474047Y-97956666D02*
X160664523Y-98004285D01*
X160664523Y-98004285D02*
X160759761Y-98051904D01*
X160759761Y-98051904D02*
X160855000Y-98147142D01*
X160855000Y-98147142D02*
X160902619Y-98289999D01*
X160902619Y-98289999D02*
X160902619Y-98528094D01*
X160902619Y-97004285D02*
X160902619Y-97575713D01*
X160902619Y-97289999D02*
X159902619Y-97289999D01*
X159902619Y-97289999D02*
X160045476Y-97385237D01*
X160045476Y-97385237D02*
X160140714Y-97480475D01*
X160140714Y-97480475D02*
X160188333Y-97575713D01*
X161222619Y-101861904D02*
X160222619Y-101861904D01*
X161222619Y-101290476D02*
X160651190Y-101719047D01*
X160222619Y-101290476D02*
X160794047Y-101861904D01*
%TO.C,C7*%
X124674333Y-79107380D02*
X124626714Y-79155000D01*
X124626714Y-79155000D02*
X124483857Y-79202619D01*
X124483857Y-79202619D02*
X124388619Y-79202619D01*
X124388619Y-79202619D02*
X124245762Y-79155000D01*
X124245762Y-79155000D02*
X124150524Y-79059761D01*
X124150524Y-79059761D02*
X124102905Y-78964523D01*
X124102905Y-78964523D02*
X124055286Y-78774047D01*
X124055286Y-78774047D02*
X124055286Y-78631190D01*
X124055286Y-78631190D02*
X124102905Y-78440714D01*
X124102905Y-78440714D02*
X124150524Y-78345476D01*
X124150524Y-78345476D02*
X124245762Y-78250238D01*
X124245762Y-78250238D02*
X124388619Y-78202619D01*
X124388619Y-78202619D02*
X124483857Y-78202619D01*
X124483857Y-78202619D02*
X124626714Y-78250238D01*
X124626714Y-78250238D02*
X124674333Y-78297857D01*
X125007667Y-78202619D02*
X125674333Y-78202619D01*
X125674333Y-78202619D02*
X125245762Y-79202619D01*
%TO.C,SW2*%
X178498667Y-99221000D02*
X178641524Y-99268619D01*
X178641524Y-99268619D02*
X178879619Y-99268619D01*
X178879619Y-99268619D02*
X178974857Y-99221000D01*
X178974857Y-99221000D02*
X179022476Y-99173380D01*
X179022476Y-99173380D02*
X179070095Y-99078142D01*
X179070095Y-99078142D02*
X179070095Y-98982904D01*
X179070095Y-98982904D02*
X179022476Y-98887666D01*
X179022476Y-98887666D02*
X178974857Y-98840047D01*
X178974857Y-98840047D02*
X178879619Y-98792428D01*
X178879619Y-98792428D02*
X178689143Y-98744809D01*
X178689143Y-98744809D02*
X178593905Y-98697190D01*
X178593905Y-98697190D02*
X178546286Y-98649571D01*
X178546286Y-98649571D02*
X178498667Y-98554333D01*
X178498667Y-98554333D02*
X178498667Y-98459095D01*
X178498667Y-98459095D02*
X178546286Y-98363857D01*
X178546286Y-98363857D02*
X178593905Y-98316238D01*
X178593905Y-98316238D02*
X178689143Y-98268619D01*
X178689143Y-98268619D02*
X178927238Y-98268619D01*
X178927238Y-98268619D02*
X179070095Y-98316238D01*
X179403429Y-98268619D02*
X179641524Y-99268619D01*
X179641524Y-99268619D02*
X179832000Y-98554333D01*
X179832000Y-98554333D02*
X180022476Y-99268619D01*
X180022476Y-99268619D02*
X180260572Y-98268619D01*
X180593905Y-98363857D02*
X180641524Y-98316238D01*
X180641524Y-98316238D02*
X180736762Y-98268619D01*
X180736762Y-98268619D02*
X180974857Y-98268619D01*
X180974857Y-98268619D02*
X181070095Y-98316238D01*
X181070095Y-98316238D02*
X181117714Y-98363857D01*
X181117714Y-98363857D02*
X181165333Y-98459095D01*
X181165333Y-98459095D02*
X181165333Y-98554333D01*
X181165333Y-98554333D02*
X181117714Y-98697190D01*
X181117714Y-98697190D02*
X180546286Y-99268619D01*
X180546286Y-99268619D02*
X181165333Y-99268619D01*
%TO.C,C3*%
X166677380Y-69016666D02*
X166725000Y-69064285D01*
X166725000Y-69064285D02*
X166772619Y-69207142D01*
X166772619Y-69207142D02*
X166772619Y-69302380D01*
X166772619Y-69302380D02*
X166725000Y-69445237D01*
X166725000Y-69445237D02*
X166629761Y-69540475D01*
X166629761Y-69540475D02*
X166534523Y-69588094D01*
X166534523Y-69588094D02*
X166344047Y-69635713D01*
X166344047Y-69635713D02*
X166201190Y-69635713D01*
X166201190Y-69635713D02*
X166010714Y-69588094D01*
X166010714Y-69588094D02*
X165915476Y-69540475D01*
X165915476Y-69540475D02*
X165820238Y-69445237D01*
X165820238Y-69445237D02*
X165772619Y-69302380D01*
X165772619Y-69302380D02*
X165772619Y-69207142D01*
X165772619Y-69207142D02*
X165820238Y-69064285D01*
X165820238Y-69064285D02*
X165867857Y-69016666D01*
X165772619Y-68683332D02*
X165772619Y-68064285D01*
X165772619Y-68064285D02*
X166153571Y-68397618D01*
X166153571Y-68397618D02*
X166153571Y-68254761D01*
X166153571Y-68254761D02*
X166201190Y-68159523D01*
X166201190Y-68159523D02*
X166248809Y-68111904D01*
X166248809Y-68111904D02*
X166344047Y-68064285D01*
X166344047Y-68064285D02*
X166582142Y-68064285D01*
X166582142Y-68064285D02*
X166677380Y-68111904D01*
X166677380Y-68111904D02*
X166725000Y-68159523D01*
X166725000Y-68159523D02*
X166772619Y-68254761D01*
X166772619Y-68254761D02*
X166772619Y-68540475D01*
X166772619Y-68540475D02*
X166725000Y-68635713D01*
X166725000Y-68635713D02*
X166677380Y-68683332D01*
%TO.C,C6*%
X132294333Y-79361380D02*
X132246714Y-79409000D01*
X132246714Y-79409000D02*
X132103857Y-79456619D01*
X132103857Y-79456619D02*
X132008619Y-79456619D01*
X132008619Y-79456619D02*
X131865762Y-79409000D01*
X131865762Y-79409000D02*
X131770524Y-79313761D01*
X131770524Y-79313761D02*
X131722905Y-79218523D01*
X131722905Y-79218523D02*
X131675286Y-79028047D01*
X131675286Y-79028047D02*
X131675286Y-78885190D01*
X131675286Y-78885190D02*
X131722905Y-78694714D01*
X131722905Y-78694714D02*
X131770524Y-78599476D01*
X131770524Y-78599476D02*
X131865762Y-78504238D01*
X131865762Y-78504238D02*
X132008619Y-78456619D01*
X132008619Y-78456619D02*
X132103857Y-78456619D01*
X132103857Y-78456619D02*
X132246714Y-78504238D01*
X132246714Y-78504238D02*
X132294333Y-78551857D01*
X133151476Y-78456619D02*
X132961000Y-78456619D01*
X132961000Y-78456619D02*
X132865762Y-78504238D01*
X132865762Y-78504238D02*
X132818143Y-78551857D01*
X132818143Y-78551857D02*
X132722905Y-78694714D01*
X132722905Y-78694714D02*
X132675286Y-78885190D01*
X132675286Y-78885190D02*
X132675286Y-79266142D01*
X132675286Y-79266142D02*
X132722905Y-79361380D01*
X132722905Y-79361380D02*
X132770524Y-79409000D01*
X132770524Y-79409000D02*
X132865762Y-79456619D01*
X132865762Y-79456619D02*
X133056238Y-79456619D01*
X133056238Y-79456619D02*
X133151476Y-79409000D01*
X133151476Y-79409000D02*
X133199095Y-79361380D01*
X133199095Y-79361380D02*
X133246714Y-79266142D01*
X133246714Y-79266142D02*
X133246714Y-79028047D01*
X133246714Y-79028047D02*
X133199095Y-78932809D01*
X133199095Y-78932809D02*
X133151476Y-78885190D01*
X133151476Y-78885190D02*
X133056238Y-78837571D01*
X133056238Y-78837571D02*
X132865762Y-78837571D01*
X132865762Y-78837571D02*
X132770524Y-78885190D01*
X132770524Y-78885190D02*
X132722905Y-78932809D01*
X132722905Y-78932809D02*
X132675286Y-79028047D01*
%TO.C,D2*%
X130706905Y-85552619D02*
X130706905Y-84552619D01*
X130706905Y-84552619D02*
X130945000Y-84552619D01*
X130945000Y-84552619D02*
X131087857Y-84600238D01*
X131087857Y-84600238D02*
X131183095Y-84695476D01*
X131183095Y-84695476D02*
X131230714Y-84790714D01*
X131230714Y-84790714D02*
X131278333Y-84981190D01*
X131278333Y-84981190D02*
X131278333Y-85124047D01*
X131278333Y-85124047D02*
X131230714Y-85314523D01*
X131230714Y-85314523D02*
X131183095Y-85409761D01*
X131183095Y-85409761D02*
X131087857Y-85505000D01*
X131087857Y-85505000D02*
X130945000Y-85552619D01*
X130945000Y-85552619D02*
X130706905Y-85552619D01*
X131659286Y-84647857D02*
X131706905Y-84600238D01*
X131706905Y-84600238D02*
X131802143Y-84552619D01*
X131802143Y-84552619D02*
X132040238Y-84552619D01*
X132040238Y-84552619D02*
X132135476Y-84600238D01*
X132135476Y-84600238D02*
X132183095Y-84647857D01*
X132183095Y-84647857D02*
X132230714Y-84743095D01*
X132230714Y-84743095D02*
X132230714Y-84838333D01*
X132230714Y-84838333D02*
X132183095Y-84981190D01*
X132183095Y-84981190D02*
X131611667Y-85552619D01*
X131611667Y-85552619D02*
X132230714Y-85552619D01*
X136358095Y-90192619D02*
X136358095Y-89192619D01*
X136929523Y-90192619D02*
X136500952Y-89621190D01*
X136929523Y-89192619D02*
X136358095Y-89764047D01*
%TO.C,R3*%
X160609619Y-85002666D02*
X160133428Y-85335999D01*
X160609619Y-85574094D02*
X159609619Y-85574094D01*
X159609619Y-85574094D02*
X159609619Y-85193142D01*
X159609619Y-85193142D02*
X159657238Y-85097904D01*
X159657238Y-85097904D02*
X159704857Y-85050285D01*
X159704857Y-85050285D02*
X159800095Y-85002666D01*
X159800095Y-85002666D02*
X159942952Y-85002666D01*
X159942952Y-85002666D02*
X160038190Y-85050285D01*
X160038190Y-85050285D02*
X160085809Y-85097904D01*
X160085809Y-85097904D02*
X160133428Y-85193142D01*
X160133428Y-85193142D02*
X160133428Y-85574094D01*
X159609619Y-84669332D02*
X159609619Y-84050285D01*
X159609619Y-84050285D02*
X159990571Y-84383618D01*
X159990571Y-84383618D02*
X159990571Y-84240761D01*
X159990571Y-84240761D02*
X160038190Y-84145523D01*
X160038190Y-84145523D02*
X160085809Y-84097904D01*
X160085809Y-84097904D02*
X160181047Y-84050285D01*
X160181047Y-84050285D02*
X160419142Y-84050285D01*
X160419142Y-84050285D02*
X160514380Y-84097904D01*
X160514380Y-84097904D02*
X160562000Y-84145523D01*
X160562000Y-84145523D02*
X160609619Y-84240761D01*
X160609619Y-84240761D02*
X160609619Y-84526475D01*
X160609619Y-84526475D02*
X160562000Y-84621713D01*
X160562000Y-84621713D02*
X160514380Y-84669332D01*
%TO.C,J1*%
X119046666Y-95093619D02*
X119046666Y-95807904D01*
X119046666Y-95807904D02*
X118999047Y-95950761D01*
X118999047Y-95950761D02*
X118903809Y-96046000D01*
X118903809Y-96046000D02*
X118760952Y-96093619D01*
X118760952Y-96093619D02*
X118665714Y-96093619D01*
X120046666Y-96093619D02*
X119475238Y-96093619D01*
X119760952Y-96093619D02*
X119760952Y-95093619D01*
X119760952Y-95093619D02*
X119665714Y-95236476D01*
X119665714Y-95236476D02*
X119570476Y-95331714D01*
X119570476Y-95331714D02*
X119475238Y-95379333D01*
%TO.C,D3*%
X130801905Y-72922619D02*
X130801905Y-71922619D01*
X130801905Y-71922619D02*
X131040000Y-71922619D01*
X131040000Y-71922619D02*
X131182857Y-71970238D01*
X131182857Y-71970238D02*
X131278095Y-72065476D01*
X131278095Y-72065476D02*
X131325714Y-72160714D01*
X131325714Y-72160714D02*
X131373333Y-72351190D01*
X131373333Y-72351190D02*
X131373333Y-72494047D01*
X131373333Y-72494047D02*
X131325714Y-72684523D01*
X131325714Y-72684523D02*
X131278095Y-72779761D01*
X131278095Y-72779761D02*
X131182857Y-72875000D01*
X131182857Y-72875000D02*
X131040000Y-72922619D01*
X131040000Y-72922619D02*
X130801905Y-72922619D01*
X131706667Y-71922619D02*
X132325714Y-71922619D01*
X132325714Y-71922619D02*
X131992381Y-72303571D01*
X131992381Y-72303571D02*
X132135238Y-72303571D01*
X132135238Y-72303571D02*
X132230476Y-72351190D01*
X132230476Y-72351190D02*
X132278095Y-72398809D01*
X132278095Y-72398809D02*
X132325714Y-72494047D01*
X132325714Y-72494047D02*
X132325714Y-72732142D01*
X132325714Y-72732142D02*
X132278095Y-72827380D01*
X132278095Y-72827380D02*
X132230476Y-72875000D01*
X132230476Y-72875000D02*
X132135238Y-72922619D01*
X132135238Y-72922619D02*
X131849524Y-72922619D01*
X131849524Y-72922619D02*
X131754286Y-72875000D01*
X131754286Y-72875000D02*
X131706667Y-72827380D01*
X126198095Y-73292619D02*
X126198095Y-72292619D01*
X126769523Y-73292619D02*
X126340952Y-72721190D01*
X126769523Y-72292619D02*
X126198095Y-72864047D01*
%TO.C,C5*%
X177024380Y-78906666D02*
X177072000Y-78954285D01*
X177072000Y-78954285D02*
X177119619Y-79097142D01*
X177119619Y-79097142D02*
X177119619Y-79192380D01*
X177119619Y-79192380D02*
X177072000Y-79335237D01*
X177072000Y-79335237D02*
X176976761Y-79430475D01*
X176976761Y-79430475D02*
X176881523Y-79478094D01*
X176881523Y-79478094D02*
X176691047Y-79525713D01*
X176691047Y-79525713D02*
X176548190Y-79525713D01*
X176548190Y-79525713D02*
X176357714Y-79478094D01*
X176357714Y-79478094D02*
X176262476Y-79430475D01*
X176262476Y-79430475D02*
X176167238Y-79335237D01*
X176167238Y-79335237D02*
X176119619Y-79192380D01*
X176119619Y-79192380D02*
X176119619Y-79097142D01*
X176119619Y-79097142D02*
X176167238Y-78954285D01*
X176167238Y-78954285D02*
X176214857Y-78906666D01*
X176119619Y-78001904D02*
X176119619Y-78478094D01*
X176119619Y-78478094D02*
X176595809Y-78525713D01*
X176595809Y-78525713D02*
X176548190Y-78478094D01*
X176548190Y-78478094D02*
X176500571Y-78382856D01*
X176500571Y-78382856D02*
X176500571Y-78144761D01*
X176500571Y-78144761D02*
X176548190Y-78049523D01*
X176548190Y-78049523D02*
X176595809Y-78001904D01*
X176595809Y-78001904D02*
X176691047Y-77954285D01*
X176691047Y-77954285D02*
X176929142Y-77954285D01*
X176929142Y-77954285D02*
X177024380Y-78001904D01*
X177024380Y-78001904D02*
X177072000Y-78049523D01*
X177072000Y-78049523D02*
X177119619Y-78144761D01*
X177119619Y-78144761D02*
X177119619Y-78382856D01*
X177119619Y-78382856D02*
X177072000Y-78478094D01*
X177072000Y-78478094D02*
X177024380Y-78525713D01*
%TO.C,R6*%
X173696333Y-65359619D02*
X173363000Y-64883428D01*
X173124905Y-65359619D02*
X173124905Y-64359619D01*
X173124905Y-64359619D02*
X173505857Y-64359619D01*
X173505857Y-64359619D02*
X173601095Y-64407238D01*
X173601095Y-64407238D02*
X173648714Y-64454857D01*
X173648714Y-64454857D02*
X173696333Y-64550095D01*
X173696333Y-64550095D02*
X173696333Y-64692952D01*
X173696333Y-64692952D02*
X173648714Y-64788190D01*
X173648714Y-64788190D02*
X173601095Y-64835809D01*
X173601095Y-64835809D02*
X173505857Y-64883428D01*
X173505857Y-64883428D02*
X173124905Y-64883428D01*
X174553476Y-64359619D02*
X174363000Y-64359619D01*
X174363000Y-64359619D02*
X174267762Y-64407238D01*
X174267762Y-64407238D02*
X174220143Y-64454857D01*
X174220143Y-64454857D02*
X174124905Y-64597714D01*
X174124905Y-64597714D02*
X174077286Y-64788190D01*
X174077286Y-64788190D02*
X174077286Y-65169142D01*
X174077286Y-65169142D02*
X174124905Y-65264380D01*
X174124905Y-65264380D02*
X174172524Y-65312000D01*
X174172524Y-65312000D02*
X174267762Y-65359619D01*
X174267762Y-65359619D02*
X174458238Y-65359619D01*
X174458238Y-65359619D02*
X174553476Y-65312000D01*
X174553476Y-65312000D02*
X174601095Y-65264380D01*
X174601095Y-65264380D02*
X174648714Y-65169142D01*
X174648714Y-65169142D02*
X174648714Y-64931047D01*
X174648714Y-64931047D02*
X174601095Y-64835809D01*
X174601095Y-64835809D02*
X174553476Y-64788190D01*
X174553476Y-64788190D02*
X174458238Y-64740571D01*
X174458238Y-64740571D02*
X174267762Y-64740571D01*
X174267762Y-64740571D02*
X174172524Y-64788190D01*
X174172524Y-64788190D02*
X174124905Y-64835809D01*
X174124905Y-64835809D02*
X174077286Y-64931047D01*
%TO.C,R9*%
X169759333Y-93299619D02*
X169426000Y-92823428D01*
X169187905Y-93299619D02*
X169187905Y-92299619D01*
X169187905Y-92299619D02*
X169568857Y-92299619D01*
X169568857Y-92299619D02*
X169664095Y-92347238D01*
X169664095Y-92347238D02*
X169711714Y-92394857D01*
X169711714Y-92394857D02*
X169759333Y-92490095D01*
X169759333Y-92490095D02*
X169759333Y-92632952D01*
X169759333Y-92632952D02*
X169711714Y-92728190D01*
X169711714Y-92728190D02*
X169664095Y-92775809D01*
X169664095Y-92775809D02*
X169568857Y-92823428D01*
X169568857Y-92823428D02*
X169187905Y-92823428D01*
X170235524Y-93299619D02*
X170426000Y-93299619D01*
X170426000Y-93299619D02*
X170521238Y-93252000D01*
X170521238Y-93252000D02*
X170568857Y-93204380D01*
X170568857Y-93204380D02*
X170664095Y-93061523D01*
X170664095Y-93061523D02*
X170711714Y-92871047D01*
X170711714Y-92871047D02*
X170711714Y-92490095D01*
X170711714Y-92490095D02*
X170664095Y-92394857D01*
X170664095Y-92394857D02*
X170616476Y-92347238D01*
X170616476Y-92347238D02*
X170521238Y-92299619D01*
X170521238Y-92299619D02*
X170330762Y-92299619D01*
X170330762Y-92299619D02*
X170235524Y-92347238D01*
X170235524Y-92347238D02*
X170187905Y-92394857D01*
X170187905Y-92394857D02*
X170140286Y-92490095D01*
X170140286Y-92490095D02*
X170140286Y-92728190D01*
X170140286Y-92728190D02*
X170187905Y-92823428D01*
X170187905Y-92823428D02*
X170235524Y-92871047D01*
X170235524Y-92871047D02*
X170330762Y-92918666D01*
X170330762Y-92918666D02*
X170521238Y-92918666D01*
X170521238Y-92918666D02*
X170616476Y-92871047D01*
X170616476Y-92871047D02*
X170664095Y-92823428D01*
X170664095Y-92823428D02*
X170711714Y-92728190D01*
%TO.C,C1*%
X199757380Y-88939666D02*
X199805000Y-88987285D01*
X199805000Y-88987285D02*
X199852619Y-89130142D01*
X199852619Y-89130142D02*
X199852619Y-89225380D01*
X199852619Y-89225380D02*
X199805000Y-89368237D01*
X199805000Y-89368237D02*
X199709761Y-89463475D01*
X199709761Y-89463475D02*
X199614523Y-89511094D01*
X199614523Y-89511094D02*
X199424047Y-89558713D01*
X199424047Y-89558713D02*
X199281190Y-89558713D01*
X199281190Y-89558713D02*
X199090714Y-89511094D01*
X199090714Y-89511094D02*
X198995476Y-89463475D01*
X198995476Y-89463475D02*
X198900238Y-89368237D01*
X198900238Y-89368237D02*
X198852619Y-89225380D01*
X198852619Y-89225380D02*
X198852619Y-89130142D01*
X198852619Y-89130142D02*
X198900238Y-88987285D01*
X198900238Y-88987285D02*
X198947857Y-88939666D01*
X199852619Y-87987285D02*
X199852619Y-88558713D01*
X199852619Y-88272999D02*
X198852619Y-88272999D01*
X198852619Y-88272999D02*
X198995476Y-88368237D01*
X198995476Y-88368237D02*
X199090714Y-88463475D01*
X199090714Y-88463475D02*
X199138333Y-88558713D01*
D12*
%TO.C,J4*%
X143570000Y-73660000D02*
X143570000Y-74990000D01*
X143570000Y-69790000D02*
X140910000Y-69790000D01*
X143570000Y-72390000D02*
X143570000Y-69790000D01*
X143570000Y-72390000D02*
X140910000Y-72390000D01*
X143570000Y-74990000D02*
X142240000Y-74990000D01*
X140910000Y-72390000D02*
X140910000Y-69790000D01*
%TO.C,U3*%
X147160000Y-71010000D02*
X147160000Y-81410000D01*
X147160000Y-81410000D02*
X157660000Y-81410000D01*
X150160000Y-71070000D02*
X150160000Y-81350000D01*
X150160000Y-81350000D02*
X154660000Y-81350000D01*
X151410000Y-71070000D02*
X150160000Y-71070000D01*
X154660000Y-71070000D02*
X153410000Y-71070000D01*
X154660000Y-81350000D02*
X154660000Y-71070000D01*
X157660000Y-71010000D02*
X147160000Y-71010000D01*
X157660000Y-81410000D02*
X157660000Y-71010000D01*
X151410000Y-71070000D02*
G75*
G03*
X153410000Y-71070000I1000000J0D01*
G01*
%TO.C,R4*%
X172720000Y-81050000D02*
X172720000Y-81820000D01*
X174090000Y-81820000D02*
X171350000Y-81820000D01*
X171350000Y-81820000D02*
X171350000Y-88360000D01*
X174090000Y-88360000D02*
X174090000Y-81820000D01*
X171350000Y-88360000D02*
X174090000Y-88360000D01*
X172720000Y-89130000D02*
X172720000Y-88360000D01*
%TO.C,R8*%
X192000000Y-67310000D02*
X191230000Y-67310000D01*
X191230000Y-68680000D02*
X191230000Y-65940000D01*
X191230000Y-65940000D02*
X184690000Y-65940000D01*
X184690000Y-68680000D02*
X191230000Y-68680000D01*
X184690000Y-65940000D02*
X184690000Y-68680000D01*
X183920000Y-67310000D02*
X184690000Y-67310000D01*
%TO.C,C2*%
X180425000Y-86280000D02*
X180110000Y-86280000D01*
X180425000Y-86280000D02*
X180425000Y-91520000D01*
X178000000Y-86280000D02*
X177685000Y-86280000D01*
X177685000Y-86280000D02*
X177685000Y-91520000D01*
X180425000Y-91520000D02*
X180110000Y-91520000D01*
X178000000Y-91520000D02*
X177685000Y-91520000D01*
%TO.C,C4*%
X164035000Y-71855225D02*
X164035000Y-72355225D01*
X164285000Y-72105225D02*
X163785000Y-72105225D01*
X165140000Y-74660000D02*
X163600000Y-74660000D01*
X161520000Y-74660000D02*
X159980000Y-74660000D01*
X165140000Y-74700000D02*
X163600000Y-74700000D01*
X161520000Y-74700000D02*
X159980000Y-74700000D01*
X165139000Y-74740000D02*
X163600000Y-74740000D01*
X161520000Y-74740000D02*
X159981000Y-74740000D01*
X165138000Y-74780000D02*
X163600000Y-74780000D01*
X161520000Y-74780000D02*
X159982000Y-74780000D01*
X165136000Y-74820000D02*
X163600000Y-74820000D01*
X161520000Y-74820000D02*
X159984000Y-74820000D01*
X165133000Y-74860000D02*
X163600000Y-74860000D01*
X161520000Y-74860000D02*
X159987000Y-74860000D01*
X165129000Y-74900000D02*
X163600000Y-74900000D01*
X161520000Y-74900000D02*
X159991000Y-74900000D01*
X165125000Y-74940000D02*
X163600000Y-74940000D01*
X161520000Y-74940000D02*
X159995000Y-74940000D01*
X165121000Y-74980000D02*
X163600000Y-74980000D01*
X161520000Y-74980000D02*
X159999000Y-74980000D01*
X165116000Y-75020000D02*
X163600000Y-75020000D01*
X161520000Y-75020000D02*
X160004000Y-75020000D01*
X165110000Y-75060000D02*
X163600000Y-75060000D01*
X161520000Y-75060000D02*
X160010000Y-75060000D01*
X165103000Y-75100000D02*
X163600000Y-75100000D01*
X161520000Y-75100000D02*
X160017000Y-75100000D01*
X165096000Y-75140000D02*
X163600000Y-75140000D01*
X161520000Y-75140000D02*
X160024000Y-75140000D01*
X165088000Y-75180000D02*
X163600000Y-75180000D01*
X161520000Y-75180000D02*
X160032000Y-75180000D01*
X165080000Y-75220000D02*
X163600000Y-75220000D01*
X161520000Y-75220000D02*
X160040000Y-75220000D01*
X165071000Y-75260000D02*
X163600000Y-75260000D01*
X161520000Y-75260000D02*
X160049000Y-75260000D01*
X165061000Y-75300000D02*
X163600000Y-75300000D01*
X161520000Y-75300000D02*
X160059000Y-75300000D01*
X165051000Y-75340000D02*
X163600000Y-75340000D01*
X161520000Y-75340000D02*
X160069000Y-75340000D01*
X165040000Y-75381000D02*
X163600000Y-75381000D01*
X161520000Y-75381000D02*
X160080000Y-75381000D01*
X165028000Y-75421000D02*
X163600000Y-75421000D01*
X161520000Y-75421000D02*
X160092000Y-75421000D01*
X165015000Y-75461000D02*
X163600000Y-75461000D01*
X161520000Y-75461000D02*
X160105000Y-75461000D01*
X165002000Y-75501000D02*
X163600000Y-75501000D01*
X161520000Y-75501000D02*
X160118000Y-75501000D01*
X164988000Y-75541000D02*
X163600000Y-75541000D01*
X161520000Y-75541000D02*
X160132000Y-75541000D01*
X164974000Y-75581000D02*
X163600000Y-75581000D01*
X161520000Y-75581000D02*
X160146000Y-75581000D01*
X164958000Y-75621000D02*
X163600000Y-75621000D01*
X161520000Y-75621000D02*
X160162000Y-75621000D01*
X164942000Y-75661000D02*
X163600000Y-75661000D01*
X161520000Y-75661000D02*
X160178000Y-75661000D01*
X164925000Y-75701000D02*
X163600000Y-75701000D01*
X161520000Y-75701000D02*
X160195000Y-75701000D01*
X164908000Y-75741000D02*
X163600000Y-75741000D01*
X161520000Y-75741000D02*
X160212000Y-75741000D01*
X164889000Y-75781000D02*
X163600000Y-75781000D01*
X161520000Y-75781000D02*
X160231000Y-75781000D01*
X164870000Y-75821000D02*
X163600000Y-75821000D01*
X161520000Y-75821000D02*
X160250000Y-75821000D01*
X164850000Y-75861000D02*
X163600000Y-75861000D01*
X161520000Y-75861000D02*
X160270000Y-75861000D01*
X164828000Y-75901000D02*
X163600000Y-75901000D01*
X161520000Y-75901000D02*
X160292000Y-75901000D01*
X164807000Y-75941000D02*
X163600000Y-75941000D01*
X161520000Y-75941000D02*
X160313000Y-75941000D01*
X164784000Y-75981000D02*
X163600000Y-75981000D01*
X161520000Y-75981000D02*
X160336000Y-75981000D01*
X164760000Y-76021000D02*
X163600000Y-76021000D01*
X161520000Y-76021000D02*
X160360000Y-76021000D01*
X164735000Y-76061000D02*
X163600000Y-76061000D01*
X161520000Y-76061000D02*
X160385000Y-76061000D01*
X164709000Y-76101000D02*
X163600000Y-76101000D01*
X161520000Y-76101000D02*
X160411000Y-76101000D01*
X164682000Y-76141000D02*
X163600000Y-76141000D01*
X161520000Y-76141000D02*
X160438000Y-76141000D01*
X164655000Y-76181000D02*
X163600000Y-76181000D01*
X161520000Y-76181000D02*
X160465000Y-76181000D01*
X164625000Y-76221000D02*
X163600000Y-76221000D01*
X161520000Y-76221000D02*
X160495000Y-76221000D01*
X164595000Y-76261000D02*
X163600000Y-76261000D01*
X161520000Y-76261000D02*
X160525000Y-76261000D01*
X164564000Y-76301000D02*
X163600000Y-76301000D01*
X161520000Y-76301000D02*
X160556000Y-76301000D01*
X164531000Y-76341000D02*
X163600000Y-76341000D01*
X161520000Y-76341000D02*
X160589000Y-76341000D01*
X164497000Y-76381000D02*
X163600000Y-76381000D01*
X161520000Y-76381000D02*
X160623000Y-76381000D01*
X164461000Y-76421000D02*
X163600000Y-76421000D01*
X161520000Y-76421000D02*
X160659000Y-76421000D01*
X164424000Y-76461000D02*
X163600000Y-76461000D01*
X161520000Y-76461000D02*
X160696000Y-76461000D01*
X164386000Y-76501000D02*
X163600000Y-76501000D01*
X161520000Y-76501000D02*
X160734000Y-76501000D01*
X164345000Y-76541000D02*
X163600000Y-76541000D01*
X161520000Y-76541000D02*
X160775000Y-76541000D01*
X164303000Y-76581000D02*
X163600000Y-76581000D01*
X161520000Y-76581000D02*
X160817000Y-76581000D01*
X164259000Y-76621000D02*
X163600000Y-76621000D01*
X161520000Y-76621000D02*
X160861000Y-76621000D01*
X164213000Y-76661000D02*
X163600000Y-76661000D01*
X161520000Y-76661000D02*
X160907000Y-76661000D01*
X164165000Y-76701000D02*
X160955000Y-76701000D01*
X164114000Y-76741000D02*
X161006000Y-76741000D01*
X164060000Y-76781000D02*
X161060000Y-76781000D01*
X164003000Y-76821000D02*
X161117000Y-76821000D01*
X163943000Y-76861000D02*
X161177000Y-76861000D01*
X163879000Y-76901000D02*
X161241000Y-76901000D01*
X163811000Y-76941000D02*
X161309000Y-76941000D01*
X163738000Y-76981000D02*
X161382000Y-76981000D01*
X163658000Y-77021000D02*
X161462000Y-77021000D01*
X163571000Y-77061000D02*
X161549000Y-77061000D01*
X163475000Y-77101000D02*
X161645000Y-77101000D01*
X163365000Y-77141000D02*
X161755000Y-77141000D01*
X163237000Y-77181000D02*
X161883000Y-77181000D01*
X163078000Y-77221000D02*
X162042000Y-77221000D01*
X162844000Y-77261000D02*
X162276000Y-77261000D01*
X165180000Y-74660000D02*
G75*
G03*
X165180000Y-74660000I-2620000J0D01*
G01*
%TO.C,R2*%
X143510000Y-87400000D02*
X143510000Y-88170000D01*
X144880000Y-88170000D02*
X142140000Y-88170000D01*
X142140000Y-88170000D02*
X142140000Y-94710000D01*
X144880000Y-94710000D02*
X144880000Y-88170000D01*
X142140000Y-94710000D02*
X144880000Y-94710000D01*
X143510000Y-95480000D02*
X143510000Y-94710000D01*
%TO.C,U2*%
X147150000Y-84970000D02*
X147150000Y-102990000D01*
X147150000Y-102990000D02*
X157650000Y-102990000D01*
X150150000Y-85030000D02*
X150150000Y-102930000D01*
X150150000Y-102930000D02*
X154650000Y-102930000D01*
X151400000Y-85030000D02*
X150150000Y-85030000D01*
X154650000Y-85030000D02*
X153400000Y-85030000D01*
X154650000Y-102930000D02*
X154650000Y-85030000D01*
X157650000Y-84970000D02*
X147150000Y-84970000D01*
X157650000Y-102990000D02*
X157650000Y-84970000D01*
X151400000Y-85030000D02*
G75*
G03*
X153400000Y-85030000I1000000J0D01*
G01*
%TO.C,SW1*%
X125670000Y-102930000D02*
X125670000Y-101600000D01*
X127000000Y-102930000D02*
X125670000Y-102930000D01*
X128270000Y-102930000D02*
X133410000Y-102930000D01*
X128270000Y-102930000D02*
X128270000Y-100270000D01*
X133410000Y-102930000D02*
X133410000Y-100270000D01*
X128270000Y-100270000D02*
X133410000Y-100270000D01*
%TO.C,RV1*%
X143555000Y-100270000D02*
X143555000Y-101600000D01*
X142225000Y-100270000D02*
X143555000Y-100270000D01*
X140955000Y-100270000D02*
X135815000Y-100270000D01*
X140955000Y-100270000D02*
X140955000Y-102930000D01*
X135815000Y-100270000D02*
X135815000Y-102930000D01*
X140955000Y-102930000D02*
X135815000Y-102930000D01*
%TO.C,RV2*%
X167580000Y-102930000D02*
X167580000Y-101600000D01*
X168910000Y-102930000D02*
X167580000Y-102930000D01*
X170180000Y-102930000D02*
X175320000Y-102930000D01*
X170180000Y-102930000D02*
X170180000Y-100270000D01*
X175320000Y-102930000D02*
X175320000Y-100270000D01*
X170180000Y-100270000D02*
X175320000Y-100270000D01*
%TO.C,U1*%
X182710000Y-77350000D02*
X182710000Y-97910000D01*
X182710000Y-97910000D02*
X193210000Y-97910000D01*
X185710000Y-77410000D02*
X185710000Y-97850000D01*
X185710000Y-97850000D02*
X190210000Y-97850000D01*
X186960000Y-77410000D02*
X185710000Y-77410000D01*
X190210000Y-77410000D02*
X188960000Y-77410000D01*
X190210000Y-97850000D02*
X190210000Y-77410000D01*
X193210000Y-77350000D02*
X182710000Y-77350000D01*
X193210000Y-97910000D02*
X193210000Y-77350000D01*
X186960000Y-77410000D02*
G75*
G03*
X188960000Y-77410000I1000000J0D01*
G01*
%TO.C,Q1*%
X154200000Y-65460000D02*
X150600000Y-65460000D01*
X152400000Y-69910000D02*
G75*
G03*
X154238478Y-65471522I0J2600000D01*
G01*
X150561522Y-65471522D02*
G75*
G03*
X152400000Y-69910000I1838478J-1838478D01*
G01*
%TO.C,R5*%
X196850000Y-81510000D02*
X196850000Y-80740000D01*
X195480000Y-80740000D02*
X198220000Y-80740000D01*
X198220000Y-80740000D02*
X198220000Y-74200000D01*
X195480000Y-74200000D02*
X195480000Y-80740000D01*
X198220000Y-74200000D02*
X195480000Y-74200000D01*
X196850000Y-73430000D02*
X196850000Y-74200000D01*
%TO.C,R7*%
X167640000Y-81050000D02*
X167640000Y-81820000D01*
X169010000Y-81820000D02*
X166270000Y-81820000D01*
X166270000Y-81820000D02*
X166270000Y-88360000D01*
X169010000Y-88360000D02*
X169010000Y-81820000D01*
X166270000Y-88360000D02*
X169010000Y-88360000D01*
X167640000Y-89130000D02*
X167640000Y-88360000D01*
%TO.C,R1*%
X129310000Y-95250000D02*
X130080000Y-95250000D01*
X130080000Y-93880000D02*
X130080000Y-96620000D01*
X130080000Y-96620000D02*
X136620000Y-96620000D01*
X136620000Y-93880000D02*
X130080000Y-93880000D01*
X136620000Y-96620000D02*
X136620000Y-93880000D01*
X137390000Y-95250000D02*
X136620000Y-95250000D01*
%TO.C,D1*%
X162560000Y-100560000D02*
X162560000Y-99910000D01*
X161440000Y-99910000D02*
X163680000Y-99910000D01*
X163680000Y-99910000D02*
X163680000Y-95670000D01*
X161440000Y-99310000D02*
X163680000Y-99310000D01*
X161440000Y-99190000D02*
X163680000Y-99190000D01*
X161440000Y-99070000D02*
X163680000Y-99070000D01*
X161440000Y-95670000D02*
X161440000Y-99910000D01*
X163680000Y-95670000D02*
X161440000Y-95670000D01*
X162560000Y-95020000D02*
X162560000Y-95670000D01*
%TO.C,C7*%
X130264775Y-82755000D02*
X129764775Y-82755000D01*
X130014775Y-83005000D02*
X130014775Y-82505000D01*
X127460000Y-83860000D02*
X127460000Y-82320000D01*
X127460000Y-80240000D02*
X127460000Y-78700000D01*
X127420000Y-83860000D02*
X127420000Y-82320000D01*
X127420000Y-80240000D02*
X127420000Y-78700000D01*
X127380000Y-83859000D02*
X127380000Y-82320000D01*
X127380000Y-80240000D02*
X127380000Y-78701000D01*
X127340000Y-83858000D02*
X127340000Y-82320000D01*
X127340000Y-80240000D02*
X127340000Y-78702000D01*
X127300000Y-83856000D02*
X127300000Y-82320000D01*
X127300000Y-80240000D02*
X127300000Y-78704000D01*
X127260000Y-83853000D02*
X127260000Y-82320000D01*
X127260000Y-80240000D02*
X127260000Y-78707000D01*
X127220000Y-83849000D02*
X127220000Y-82320000D01*
X127220000Y-80240000D02*
X127220000Y-78711000D01*
X127180000Y-83845000D02*
X127180000Y-82320000D01*
X127180000Y-80240000D02*
X127180000Y-78715000D01*
X127140000Y-83841000D02*
X127140000Y-82320000D01*
X127140000Y-80240000D02*
X127140000Y-78719000D01*
X127100000Y-83836000D02*
X127100000Y-82320000D01*
X127100000Y-80240000D02*
X127100000Y-78724000D01*
X127060000Y-83830000D02*
X127060000Y-82320000D01*
X127060000Y-80240000D02*
X127060000Y-78730000D01*
X127020000Y-83823000D02*
X127020000Y-82320000D01*
X127020000Y-80240000D02*
X127020000Y-78737000D01*
X126980000Y-83816000D02*
X126980000Y-82320000D01*
X126980000Y-80240000D02*
X126980000Y-78744000D01*
X126940000Y-83808000D02*
X126940000Y-82320000D01*
X126940000Y-80240000D02*
X126940000Y-78752000D01*
X126900000Y-83800000D02*
X126900000Y-82320000D01*
X126900000Y-80240000D02*
X126900000Y-78760000D01*
X126860000Y-83791000D02*
X126860000Y-82320000D01*
X126860000Y-80240000D02*
X126860000Y-78769000D01*
X126820000Y-83781000D02*
X126820000Y-82320000D01*
X126820000Y-80240000D02*
X126820000Y-78779000D01*
X126780000Y-83771000D02*
X126780000Y-82320000D01*
X126780000Y-80240000D02*
X126780000Y-78789000D01*
X126739000Y-83760000D02*
X126739000Y-82320000D01*
X126739000Y-80240000D02*
X126739000Y-78800000D01*
X126699000Y-83748000D02*
X126699000Y-82320000D01*
X126699000Y-80240000D02*
X126699000Y-78812000D01*
X126659000Y-83735000D02*
X126659000Y-82320000D01*
X126659000Y-80240000D02*
X126659000Y-78825000D01*
X126619000Y-83722000D02*
X126619000Y-82320000D01*
X126619000Y-80240000D02*
X126619000Y-78838000D01*
X126579000Y-83708000D02*
X126579000Y-82320000D01*
X126579000Y-80240000D02*
X126579000Y-78852000D01*
X126539000Y-83694000D02*
X126539000Y-82320000D01*
X126539000Y-80240000D02*
X126539000Y-78866000D01*
X126499000Y-83678000D02*
X126499000Y-82320000D01*
X126499000Y-80240000D02*
X126499000Y-78882000D01*
X126459000Y-83662000D02*
X126459000Y-82320000D01*
X126459000Y-80240000D02*
X126459000Y-78898000D01*
X126419000Y-83645000D02*
X126419000Y-82320000D01*
X126419000Y-80240000D02*
X126419000Y-78915000D01*
X126379000Y-83628000D02*
X126379000Y-82320000D01*
X126379000Y-80240000D02*
X126379000Y-78932000D01*
X126339000Y-83609000D02*
X126339000Y-82320000D01*
X126339000Y-80240000D02*
X126339000Y-78951000D01*
X126299000Y-83590000D02*
X126299000Y-82320000D01*
X126299000Y-80240000D02*
X126299000Y-78970000D01*
X126259000Y-83570000D02*
X126259000Y-82320000D01*
X126259000Y-80240000D02*
X126259000Y-78990000D01*
X126219000Y-83548000D02*
X126219000Y-82320000D01*
X126219000Y-80240000D02*
X126219000Y-79012000D01*
X126179000Y-83527000D02*
X126179000Y-82320000D01*
X126179000Y-80240000D02*
X126179000Y-79033000D01*
X126139000Y-83504000D02*
X126139000Y-82320000D01*
X126139000Y-80240000D02*
X126139000Y-79056000D01*
X126099000Y-83480000D02*
X126099000Y-82320000D01*
X126099000Y-80240000D02*
X126099000Y-79080000D01*
X126059000Y-83455000D02*
X126059000Y-82320000D01*
X126059000Y-80240000D02*
X126059000Y-79105000D01*
X126019000Y-83429000D02*
X126019000Y-82320000D01*
X126019000Y-80240000D02*
X126019000Y-79131000D01*
X125979000Y-83402000D02*
X125979000Y-82320000D01*
X125979000Y-80240000D02*
X125979000Y-79158000D01*
X125939000Y-83375000D02*
X125939000Y-82320000D01*
X125939000Y-80240000D02*
X125939000Y-79185000D01*
X125899000Y-83345000D02*
X125899000Y-82320000D01*
X125899000Y-80240000D02*
X125899000Y-79215000D01*
X125859000Y-83315000D02*
X125859000Y-82320000D01*
X125859000Y-80240000D02*
X125859000Y-79245000D01*
X125819000Y-83284000D02*
X125819000Y-82320000D01*
X125819000Y-80240000D02*
X125819000Y-79276000D01*
X125779000Y-83251000D02*
X125779000Y-82320000D01*
X125779000Y-80240000D02*
X125779000Y-79309000D01*
X125739000Y-83217000D02*
X125739000Y-82320000D01*
X125739000Y-80240000D02*
X125739000Y-79343000D01*
X125699000Y-83181000D02*
X125699000Y-82320000D01*
X125699000Y-80240000D02*
X125699000Y-79379000D01*
X125659000Y-83144000D02*
X125659000Y-82320000D01*
X125659000Y-80240000D02*
X125659000Y-79416000D01*
X125619000Y-83106000D02*
X125619000Y-82320000D01*
X125619000Y-80240000D02*
X125619000Y-79454000D01*
X125579000Y-83065000D02*
X125579000Y-82320000D01*
X125579000Y-80240000D02*
X125579000Y-79495000D01*
X125539000Y-83023000D02*
X125539000Y-82320000D01*
X125539000Y-80240000D02*
X125539000Y-79537000D01*
X125499000Y-82979000D02*
X125499000Y-82320000D01*
X125499000Y-80240000D02*
X125499000Y-79581000D01*
X125459000Y-82933000D02*
X125459000Y-82320000D01*
X125459000Y-80240000D02*
X125459000Y-79627000D01*
X125419000Y-82885000D02*
X125419000Y-79675000D01*
X125379000Y-82834000D02*
X125379000Y-79726000D01*
X125339000Y-82780000D02*
X125339000Y-79780000D01*
X125299000Y-82723000D02*
X125299000Y-79837000D01*
X125259000Y-82663000D02*
X125259000Y-79897000D01*
X125219000Y-82599000D02*
X125219000Y-79961000D01*
X125179000Y-82531000D02*
X125179000Y-80029000D01*
X125139000Y-82458000D02*
X125139000Y-80102000D01*
X125099000Y-82378000D02*
X125099000Y-80182000D01*
X125059000Y-82291000D02*
X125059000Y-80269000D01*
X125019000Y-82195000D02*
X125019000Y-80365000D01*
X124979000Y-82085000D02*
X124979000Y-80475000D01*
X124939000Y-81957000D02*
X124939000Y-80603000D01*
X124899000Y-81798000D02*
X124899000Y-80762000D01*
X124859000Y-81564000D02*
X124859000Y-80996000D01*
X130080000Y-81280000D02*
G75*
G03*
X130080000Y-81280000I-2620000J0D01*
G01*
%TO.C,SW2*%
X186735000Y-100270000D02*
X186735000Y-101600000D01*
X185405000Y-100270000D02*
X186735000Y-100270000D01*
X184135000Y-100270000D02*
X178995000Y-100270000D01*
X184135000Y-100270000D02*
X184135000Y-102930000D01*
X178995000Y-100270000D02*
X178995000Y-102930000D01*
X184135000Y-102930000D02*
X178995000Y-102930000D01*
%TO.C,C3*%
X164035000Y-66045225D02*
X164035000Y-66545225D01*
X164285000Y-66295225D02*
X163785000Y-66295225D01*
X165140000Y-68850000D02*
X163600000Y-68850000D01*
X161520000Y-68850000D02*
X159980000Y-68850000D01*
X165140000Y-68890000D02*
X163600000Y-68890000D01*
X161520000Y-68890000D02*
X159980000Y-68890000D01*
X165139000Y-68930000D02*
X163600000Y-68930000D01*
X161520000Y-68930000D02*
X159981000Y-68930000D01*
X165138000Y-68970000D02*
X163600000Y-68970000D01*
X161520000Y-68970000D02*
X159982000Y-68970000D01*
X165136000Y-69010000D02*
X163600000Y-69010000D01*
X161520000Y-69010000D02*
X159984000Y-69010000D01*
X165133000Y-69050000D02*
X163600000Y-69050000D01*
X161520000Y-69050000D02*
X159987000Y-69050000D01*
X165129000Y-69090000D02*
X163600000Y-69090000D01*
X161520000Y-69090000D02*
X159991000Y-69090000D01*
X165125000Y-69130000D02*
X163600000Y-69130000D01*
X161520000Y-69130000D02*
X159995000Y-69130000D01*
X165121000Y-69170000D02*
X163600000Y-69170000D01*
X161520000Y-69170000D02*
X159999000Y-69170000D01*
X165116000Y-69210000D02*
X163600000Y-69210000D01*
X161520000Y-69210000D02*
X160004000Y-69210000D01*
X165110000Y-69250000D02*
X163600000Y-69250000D01*
X161520000Y-69250000D02*
X160010000Y-69250000D01*
X165103000Y-69290000D02*
X163600000Y-69290000D01*
X161520000Y-69290000D02*
X160017000Y-69290000D01*
X165096000Y-69330000D02*
X163600000Y-69330000D01*
X161520000Y-69330000D02*
X160024000Y-69330000D01*
X165088000Y-69370000D02*
X163600000Y-69370000D01*
X161520000Y-69370000D02*
X160032000Y-69370000D01*
X165080000Y-69410000D02*
X163600000Y-69410000D01*
X161520000Y-69410000D02*
X160040000Y-69410000D01*
X165071000Y-69450000D02*
X163600000Y-69450000D01*
X161520000Y-69450000D02*
X160049000Y-69450000D01*
X165061000Y-69490000D02*
X163600000Y-69490000D01*
X161520000Y-69490000D02*
X160059000Y-69490000D01*
X165051000Y-69530000D02*
X163600000Y-69530000D01*
X161520000Y-69530000D02*
X160069000Y-69530000D01*
X165040000Y-69571000D02*
X163600000Y-69571000D01*
X161520000Y-69571000D02*
X160080000Y-69571000D01*
X165028000Y-69611000D02*
X163600000Y-69611000D01*
X161520000Y-69611000D02*
X160092000Y-69611000D01*
X165015000Y-69651000D02*
X163600000Y-69651000D01*
X161520000Y-69651000D02*
X160105000Y-69651000D01*
X165002000Y-69691000D02*
X163600000Y-69691000D01*
X161520000Y-69691000D02*
X160118000Y-69691000D01*
X164988000Y-69731000D02*
X163600000Y-69731000D01*
X161520000Y-69731000D02*
X160132000Y-69731000D01*
X164974000Y-69771000D02*
X163600000Y-69771000D01*
X161520000Y-69771000D02*
X160146000Y-69771000D01*
X164958000Y-69811000D02*
X163600000Y-69811000D01*
X161520000Y-69811000D02*
X160162000Y-69811000D01*
X164942000Y-69851000D02*
X163600000Y-69851000D01*
X161520000Y-69851000D02*
X160178000Y-69851000D01*
X164925000Y-69891000D02*
X163600000Y-69891000D01*
X161520000Y-69891000D02*
X160195000Y-69891000D01*
X164908000Y-69931000D02*
X163600000Y-69931000D01*
X161520000Y-69931000D02*
X160212000Y-69931000D01*
X164889000Y-69971000D02*
X163600000Y-69971000D01*
X161520000Y-69971000D02*
X160231000Y-69971000D01*
X164870000Y-70011000D02*
X163600000Y-70011000D01*
X161520000Y-70011000D02*
X160250000Y-70011000D01*
X164850000Y-70051000D02*
X163600000Y-70051000D01*
X161520000Y-70051000D02*
X160270000Y-70051000D01*
X164828000Y-70091000D02*
X163600000Y-70091000D01*
X161520000Y-70091000D02*
X160292000Y-70091000D01*
X164807000Y-70131000D02*
X163600000Y-70131000D01*
X161520000Y-70131000D02*
X160313000Y-70131000D01*
X164784000Y-70171000D02*
X163600000Y-70171000D01*
X161520000Y-70171000D02*
X160336000Y-70171000D01*
X164760000Y-70211000D02*
X163600000Y-70211000D01*
X161520000Y-70211000D02*
X160360000Y-70211000D01*
X164735000Y-70251000D02*
X163600000Y-70251000D01*
X161520000Y-70251000D02*
X160385000Y-70251000D01*
X164709000Y-70291000D02*
X163600000Y-70291000D01*
X161520000Y-70291000D02*
X160411000Y-70291000D01*
X164682000Y-70331000D02*
X163600000Y-70331000D01*
X161520000Y-70331000D02*
X160438000Y-70331000D01*
X164655000Y-70371000D02*
X163600000Y-70371000D01*
X161520000Y-70371000D02*
X160465000Y-70371000D01*
X164625000Y-70411000D02*
X163600000Y-70411000D01*
X161520000Y-70411000D02*
X160495000Y-70411000D01*
X164595000Y-70451000D02*
X163600000Y-70451000D01*
X161520000Y-70451000D02*
X160525000Y-70451000D01*
X164564000Y-70491000D02*
X163600000Y-70491000D01*
X161520000Y-70491000D02*
X160556000Y-70491000D01*
X164531000Y-70531000D02*
X163600000Y-70531000D01*
X161520000Y-70531000D02*
X160589000Y-70531000D01*
X164497000Y-70571000D02*
X163600000Y-70571000D01*
X161520000Y-70571000D02*
X160623000Y-70571000D01*
X164461000Y-70611000D02*
X163600000Y-70611000D01*
X161520000Y-70611000D02*
X160659000Y-70611000D01*
X164424000Y-70651000D02*
X163600000Y-70651000D01*
X161520000Y-70651000D02*
X160696000Y-70651000D01*
X164386000Y-70691000D02*
X163600000Y-70691000D01*
X161520000Y-70691000D02*
X160734000Y-70691000D01*
X164345000Y-70731000D02*
X163600000Y-70731000D01*
X161520000Y-70731000D02*
X160775000Y-70731000D01*
X164303000Y-70771000D02*
X163600000Y-70771000D01*
X161520000Y-70771000D02*
X160817000Y-70771000D01*
X164259000Y-70811000D02*
X163600000Y-70811000D01*
X161520000Y-70811000D02*
X160861000Y-70811000D01*
X164213000Y-70851000D02*
X163600000Y-70851000D01*
X161520000Y-70851000D02*
X160907000Y-70851000D01*
X164165000Y-70891000D02*
X160955000Y-70891000D01*
X164114000Y-70931000D02*
X161006000Y-70931000D01*
X164060000Y-70971000D02*
X161060000Y-70971000D01*
X164003000Y-71011000D02*
X161117000Y-71011000D01*
X163943000Y-71051000D02*
X161177000Y-71051000D01*
X163879000Y-71091000D02*
X161241000Y-71091000D01*
X163811000Y-71131000D02*
X161309000Y-71131000D01*
X163738000Y-71171000D02*
X161382000Y-71171000D01*
X163658000Y-71211000D02*
X161462000Y-71211000D01*
X163571000Y-71251000D02*
X161549000Y-71251000D01*
X163475000Y-71291000D02*
X161645000Y-71291000D01*
X163365000Y-71331000D02*
X161755000Y-71331000D01*
X163237000Y-71371000D02*
X161883000Y-71371000D01*
X163078000Y-71411000D02*
X162042000Y-71411000D01*
X162844000Y-71451000D02*
X162276000Y-71451000D01*
X165180000Y-68850000D02*
G75*
G03*
X165180000Y-68850000I-2620000J0D01*
G01*
%TO.C,C6*%
X138424775Y-82755000D02*
X137924775Y-82755000D01*
X138174775Y-83005000D02*
X138174775Y-82505000D01*
X135620000Y-83860000D02*
X135620000Y-82320000D01*
X135620000Y-80240000D02*
X135620000Y-78700000D01*
X135580000Y-83860000D02*
X135580000Y-82320000D01*
X135580000Y-80240000D02*
X135580000Y-78700000D01*
X135540000Y-83859000D02*
X135540000Y-82320000D01*
X135540000Y-80240000D02*
X135540000Y-78701000D01*
X135500000Y-83858000D02*
X135500000Y-82320000D01*
X135500000Y-80240000D02*
X135500000Y-78702000D01*
X135460000Y-83856000D02*
X135460000Y-82320000D01*
X135460000Y-80240000D02*
X135460000Y-78704000D01*
X135420000Y-83853000D02*
X135420000Y-82320000D01*
X135420000Y-80240000D02*
X135420000Y-78707000D01*
X135380000Y-83849000D02*
X135380000Y-82320000D01*
X135380000Y-80240000D02*
X135380000Y-78711000D01*
X135340000Y-83845000D02*
X135340000Y-82320000D01*
X135340000Y-80240000D02*
X135340000Y-78715000D01*
X135300000Y-83841000D02*
X135300000Y-82320000D01*
X135300000Y-80240000D02*
X135300000Y-78719000D01*
X135260000Y-83836000D02*
X135260000Y-82320000D01*
X135260000Y-80240000D02*
X135260000Y-78724000D01*
X135220000Y-83830000D02*
X135220000Y-82320000D01*
X135220000Y-80240000D02*
X135220000Y-78730000D01*
X135180000Y-83823000D02*
X135180000Y-82320000D01*
X135180000Y-80240000D02*
X135180000Y-78737000D01*
X135140000Y-83816000D02*
X135140000Y-82320000D01*
X135140000Y-80240000D02*
X135140000Y-78744000D01*
X135100000Y-83808000D02*
X135100000Y-82320000D01*
X135100000Y-80240000D02*
X135100000Y-78752000D01*
X135060000Y-83800000D02*
X135060000Y-82320000D01*
X135060000Y-80240000D02*
X135060000Y-78760000D01*
X135020000Y-83791000D02*
X135020000Y-82320000D01*
X135020000Y-80240000D02*
X135020000Y-78769000D01*
X134980000Y-83781000D02*
X134980000Y-82320000D01*
X134980000Y-80240000D02*
X134980000Y-78779000D01*
X134940000Y-83771000D02*
X134940000Y-82320000D01*
X134940000Y-80240000D02*
X134940000Y-78789000D01*
X134899000Y-83760000D02*
X134899000Y-82320000D01*
X134899000Y-80240000D02*
X134899000Y-78800000D01*
X134859000Y-83748000D02*
X134859000Y-82320000D01*
X134859000Y-80240000D02*
X134859000Y-78812000D01*
X134819000Y-83735000D02*
X134819000Y-82320000D01*
X134819000Y-80240000D02*
X134819000Y-78825000D01*
X134779000Y-83722000D02*
X134779000Y-82320000D01*
X134779000Y-80240000D02*
X134779000Y-78838000D01*
X134739000Y-83708000D02*
X134739000Y-82320000D01*
X134739000Y-80240000D02*
X134739000Y-78852000D01*
X134699000Y-83694000D02*
X134699000Y-82320000D01*
X134699000Y-80240000D02*
X134699000Y-78866000D01*
X134659000Y-83678000D02*
X134659000Y-82320000D01*
X134659000Y-80240000D02*
X134659000Y-78882000D01*
X134619000Y-83662000D02*
X134619000Y-82320000D01*
X134619000Y-80240000D02*
X134619000Y-78898000D01*
X134579000Y-83645000D02*
X134579000Y-82320000D01*
X134579000Y-80240000D02*
X134579000Y-78915000D01*
X134539000Y-83628000D02*
X134539000Y-82320000D01*
X134539000Y-80240000D02*
X134539000Y-78932000D01*
X134499000Y-83609000D02*
X134499000Y-82320000D01*
X134499000Y-80240000D02*
X134499000Y-78951000D01*
X134459000Y-83590000D02*
X134459000Y-82320000D01*
X134459000Y-80240000D02*
X134459000Y-78970000D01*
X134419000Y-83570000D02*
X134419000Y-82320000D01*
X134419000Y-80240000D02*
X134419000Y-78990000D01*
X134379000Y-83548000D02*
X134379000Y-82320000D01*
X134379000Y-80240000D02*
X134379000Y-79012000D01*
X134339000Y-83527000D02*
X134339000Y-82320000D01*
X134339000Y-80240000D02*
X134339000Y-79033000D01*
X134299000Y-83504000D02*
X134299000Y-82320000D01*
X134299000Y-80240000D02*
X134299000Y-79056000D01*
X134259000Y-83480000D02*
X134259000Y-82320000D01*
X134259000Y-80240000D02*
X134259000Y-79080000D01*
X134219000Y-83455000D02*
X134219000Y-82320000D01*
X134219000Y-80240000D02*
X134219000Y-79105000D01*
X134179000Y-83429000D02*
X134179000Y-82320000D01*
X134179000Y-80240000D02*
X134179000Y-79131000D01*
X134139000Y-83402000D02*
X134139000Y-82320000D01*
X134139000Y-80240000D02*
X134139000Y-79158000D01*
X134099000Y-83375000D02*
X134099000Y-82320000D01*
X134099000Y-80240000D02*
X134099000Y-79185000D01*
X134059000Y-83345000D02*
X134059000Y-82320000D01*
X134059000Y-80240000D02*
X134059000Y-79215000D01*
X134019000Y-83315000D02*
X134019000Y-82320000D01*
X134019000Y-80240000D02*
X134019000Y-79245000D01*
X133979000Y-83284000D02*
X133979000Y-82320000D01*
X133979000Y-80240000D02*
X133979000Y-79276000D01*
X133939000Y-83251000D02*
X133939000Y-82320000D01*
X133939000Y-80240000D02*
X133939000Y-79309000D01*
X133899000Y-83217000D02*
X133899000Y-82320000D01*
X133899000Y-80240000D02*
X133899000Y-79343000D01*
X133859000Y-83181000D02*
X133859000Y-82320000D01*
X133859000Y-80240000D02*
X133859000Y-79379000D01*
X133819000Y-83144000D02*
X133819000Y-82320000D01*
X133819000Y-80240000D02*
X133819000Y-79416000D01*
X133779000Y-83106000D02*
X133779000Y-82320000D01*
X133779000Y-80240000D02*
X133779000Y-79454000D01*
X133739000Y-83065000D02*
X133739000Y-82320000D01*
X133739000Y-80240000D02*
X133739000Y-79495000D01*
X133699000Y-83023000D02*
X133699000Y-82320000D01*
X133699000Y-80240000D02*
X133699000Y-79537000D01*
X133659000Y-82979000D02*
X133659000Y-82320000D01*
X133659000Y-80240000D02*
X133659000Y-79581000D01*
X133619000Y-82933000D02*
X133619000Y-82320000D01*
X133619000Y-80240000D02*
X133619000Y-79627000D01*
X133579000Y-82885000D02*
X133579000Y-79675000D01*
X133539000Y-82834000D02*
X133539000Y-79726000D01*
X133499000Y-82780000D02*
X133499000Y-79780000D01*
X133459000Y-82723000D02*
X133459000Y-79837000D01*
X133419000Y-82663000D02*
X133419000Y-79897000D01*
X133379000Y-82599000D02*
X133379000Y-79961000D01*
X133339000Y-82531000D02*
X133339000Y-80029000D01*
X133299000Y-82458000D02*
X133299000Y-80102000D01*
X133259000Y-82378000D02*
X133259000Y-80182000D01*
X133219000Y-82291000D02*
X133219000Y-80269000D01*
X133179000Y-82195000D02*
X133179000Y-80365000D01*
X133139000Y-82085000D02*
X133139000Y-80475000D01*
X133099000Y-81957000D02*
X133099000Y-80603000D01*
X133059000Y-81798000D02*
X133059000Y-80762000D01*
X133019000Y-81564000D02*
X133019000Y-80996000D01*
X138240000Y-81280000D02*
G75*
G03*
X138240000Y-81280000I-2620000J0D01*
G01*
%TO.C,D2*%
X135280000Y-87630000D02*
X134260000Y-87630000D01*
X134260000Y-89100000D02*
X134260000Y-86160000D01*
X134260000Y-86160000D02*
X128820000Y-86160000D01*
X133480000Y-89100000D02*
X133480000Y-86160000D01*
X133360000Y-89100000D02*
X133360000Y-86160000D01*
X133240000Y-89100000D02*
X133240000Y-86160000D01*
X128820000Y-89100000D02*
X134260000Y-89100000D01*
X128820000Y-86160000D02*
X128820000Y-89100000D01*
X127800000Y-87630000D02*
X128820000Y-87630000D01*
%TO.C,R3*%
X162560000Y-81050000D02*
X162560000Y-81820000D01*
X163930000Y-81820000D02*
X161190000Y-81820000D01*
X161190000Y-81820000D02*
X161190000Y-88360000D01*
X163930000Y-88360000D02*
X163930000Y-81820000D01*
X161190000Y-88360000D02*
X163930000Y-88360000D01*
X162560000Y-89130000D02*
X162560000Y-88360000D01*
%TO.C,J1*%
X116780000Y-73600000D02*
X118110000Y-73600000D01*
X116780000Y-74930000D02*
X116780000Y-73600000D01*
X116780000Y-76200000D02*
X116780000Y-94040000D01*
X116780000Y-76200000D02*
X119380000Y-76200000D01*
X116780000Y-94040000D02*
X121980000Y-94040000D01*
X119380000Y-73600000D02*
X121980000Y-73600000D01*
X119380000Y-76200000D02*
X119380000Y-73600000D01*
X121980000Y-73600000D02*
X121980000Y-94040000D01*
%TO.C,D3*%
X127800000Y-74930000D02*
X128820000Y-74930000D01*
X128820000Y-73460000D02*
X128820000Y-76400000D01*
X128820000Y-76400000D02*
X134260000Y-76400000D01*
X129600000Y-73460000D02*
X129600000Y-76400000D01*
X129720000Y-73460000D02*
X129720000Y-76400000D01*
X129840000Y-73460000D02*
X129840000Y-76400000D01*
X134260000Y-73460000D02*
X128820000Y-73460000D01*
X134260000Y-76400000D02*
X134260000Y-73460000D01*
X135280000Y-74930000D02*
X134260000Y-74930000D01*
%TO.C,C5*%
X180440000Y-76080000D02*
X180125000Y-76080000D01*
X180440000Y-76080000D02*
X180440000Y-81320000D01*
X178015000Y-76080000D02*
X177700000Y-76080000D01*
X177700000Y-76080000D02*
X177700000Y-81320000D01*
X180440000Y-81320000D02*
X180125000Y-81320000D01*
X178015000Y-81320000D02*
X177700000Y-81320000D01*
%TO.C,R6*%
X178030000Y-67310000D02*
X177260000Y-67310000D01*
X177260000Y-68680000D02*
X177260000Y-65940000D01*
X177260000Y-65940000D02*
X170720000Y-65940000D01*
X170720000Y-68680000D02*
X177260000Y-68680000D01*
X170720000Y-65940000D02*
X170720000Y-68680000D01*
X169950000Y-67310000D02*
X170720000Y-67310000D01*
%TO.C,R9*%
X176760000Y-95250000D02*
X175990000Y-95250000D01*
X175990000Y-96620000D02*
X175990000Y-93880000D01*
X175990000Y-93880000D02*
X169450000Y-93880000D01*
X169450000Y-96620000D02*
X175990000Y-96620000D01*
X169450000Y-93880000D02*
X169450000Y-96620000D01*
X168680000Y-95250000D02*
X169450000Y-95250000D01*
%TO.C,C1*%
X195465000Y-91560000D02*
X195780000Y-91560000D01*
X195465000Y-91560000D02*
X195465000Y-86320000D01*
X197890000Y-91560000D02*
X198205000Y-91560000D01*
X198205000Y-91560000D02*
X198205000Y-86320000D01*
X195465000Y-86320000D02*
X195780000Y-86320000D01*
X197890000Y-86320000D02*
X198205000Y-86320000D01*
%TD*%
M02*
